%TF.GenerationSoftware,KiCad,Pcbnew,9.0.2*%
%TF.CreationDate,2025-06-28T05:17:50-07:00*%
%TF.ProjectId,butterfly5,62757474-6572-4666-9c79-352e6b696361,rev?*%
%TF.SameCoordinates,Original*%
%TF.FileFunction,Copper,L1,Top*%
%TF.FilePolarity,Positive*%
%FSLAX46Y46*%
G04 Gerber Fmt 4.6, Leading zero omitted, Abs format (unit mm)*
G04 Created by KiCad (PCBNEW 9.0.2) date 2025-06-28 05:17:50*
%MOMM*%
%LPD*%
G01*
G04 APERTURE LIST*
G04 Aperture macros list*
%AMRoundRect*
0 Rectangle with rounded corners*
0 $1 Rounding radius*
0 $2 $3 $4 $5 $6 $7 $8 $9 X,Y pos of 4 corners*
0 Add a 4 corners polygon primitive as box body*
4,1,4,$2,$3,$4,$5,$6,$7,$8,$9,$2,$3,0*
0 Add four circle primitives for the rounded corners*
1,1,$1+$1,$2,$3*
1,1,$1+$1,$4,$5*
1,1,$1+$1,$6,$7*
1,1,$1+$1,$8,$9*
0 Add four rect primitives between the rounded corners*
20,1,$1+$1,$2,$3,$4,$5,0*
20,1,$1+$1,$4,$5,$6,$7,0*
20,1,$1+$1,$6,$7,$8,$9,0*
20,1,$1+$1,$8,$9,$2,$3,0*%
G04 Aperture macros list end*
%TA.AperFunction,NonConductor*%
%ADD10C,0.000000*%
%TD*%
%TA.AperFunction,NonConductor*%
%ADD11C,0.761999*%
%TD*%
%ADD12C,0.150000*%
%TA.AperFunction,NonConductor*%
%ADD13C,0.150000*%
%TD*%
%ADD14C,0.300000*%
%TA.AperFunction,NonConductor*%
%ADD15C,0.300000*%
%TD*%
%TA.AperFunction,ComponentPad*%
%ADD16C,1.600000*%
%TD*%
%TA.AperFunction,SMDPad,CuDef*%
%ADD17R,1.270000X5.080000*%
%TD*%
%TA.AperFunction,SMDPad,CuDef*%
%ADD18C,17.800000*%
%TD*%
%TA.AperFunction,ComponentPad*%
%ADD19R,1.800000X1.800000*%
%TD*%
%TA.AperFunction,ComponentPad*%
%ADD20C,1.800000*%
%TD*%
%TA.AperFunction,ComponentPad*%
%ADD21R,1.100000X1.800000*%
%TD*%
%TA.AperFunction,ComponentPad*%
%ADD22RoundRect,0.275000X-0.275000X-0.625000X0.275000X-0.625000X0.275000X0.625000X-0.275000X0.625000X0*%
%TD*%
%TA.AperFunction,ComponentPad*%
%ADD23C,2.000000*%
%TD*%
%TA.AperFunction,ComponentPad*%
%ADD24C,1.440000*%
%TD*%
%TA.AperFunction,ViaPad*%
%ADD25C,0.600000*%
%TD*%
%TA.AperFunction,Conductor*%
%ADD26C,0.200000*%
%TD*%
G04 APERTURE END LIST*
D10*
%TA.AperFunction,NonConductor*%
G36*
X141832374Y-108624382D02*
G01*
X141844133Y-108625720D01*
X141855759Y-108627949D01*
X141867187Y-108631070D01*
X141878350Y-108635083D01*
X141889182Y-108639987D01*
X141899618Y-108645783D01*
X141909590Y-108652471D01*
X141919033Y-108660051D01*
X141927881Y-108668522D01*
X141936067Y-108677885D01*
X141943525Y-108688139D01*
X141950190Y-108699286D01*
X141955994Y-108711324D01*
X141960872Y-108724253D01*
X141964758Y-108738075D01*
X142330920Y-110289821D01*
X142333681Y-110299919D01*
X142337114Y-110309711D01*
X142341192Y-110319170D01*
X142345890Y-110328271D01*
X142351181Y-110336986D01*
X142357039Y-110345290D01*
X142363439Y-110353158D01*
X142370353Y-110360562D01*
X142377757Y-110367477D01*
X142385624Y-110373877D01*
X142393928Y-110379736D01*
X142402643Y-110385028D01*
X142411743Y-110389726D01*
X142421202Y-110393805D01*
X142430994Y-110397238D01*
X142441092Y-110400000D01*
X143992842Y-110766162D01*
X144006664Y-110770047D01*
X144019594Y-110774925D01*
X144031632Y-110780730D01*
X144042779Y-110787394D01*
X144053034Y-110794853D01*
X144062397Y-110803039D01*
X144070868Y-110811886D01*
X144078448Y-110821329D01*
X144085136Y-110831302D01*
X144090932Y-110841737D01*
X144095836Y-110852570D01*
X144099849Y-110863733D01*
X144102970Y-110875161D01*
X144105199Y-110886787D01*
X144106537Y-110898545D01*
X144106983Y-110910370D01*
X144106537Y-110922195D01*
X144105199Y-110933954D01*
X144102970Y-110945580D01*
X144099849Y-110957008D01*
X144095836Y-110968171D01*
X144090932Y-110979003D01*
X144085136Y-110989439D01*
X144078448Y-110999411D01*
X144070868Y-111008854D01*
X144062397Y-111017702D01*
X144053034Y-111025888D01*
X144042779Y-111033346D01*
X144031632Y-111040011D01*
X144019594Y-111045815D01*
X144006664Y-111050693D01*
X143992842Y-111054579D01*
X142441092Y-111420741D01*
X142430994Y-111423502D01*
X142421202Y-111426935D01*
X142411743Y-111431013D01*
X142402643Y-111435711D01*
X142393928Y-111441002D01*
X142385624Y-111446860D01*
X142377757Y-111453260D01*
X142370353Y-111460174D01*
X142363439Y-111467578D01*
X142357039Y-111475445D01*
X142351181Y-111483749D01*
X142345890Y-111492464D01*
X142341192Y-111501564D01*
X142337114Y-111511023D01*
X142333681Y-111520815D01*
X142330920Y-111530913D01*
X141964758Y-113082663D01*
X141960872Y-113096485D01*
X141955994Y-113109415D01*
X141950190Y-113121453D01*
X141943525Y-113132600D01*
X141936067Y-113142855D01*
X141927881Y-113152218D01*
X141919033Y-113160689D01*
X141909590Y-113168269D01*
X141899618Y-113174957D01*
X141889182Y-113180753D01*
X141878350Y-113185657D01*
X141867187Y-113189670D01*
X141855759Y-113192791D01*
X141844133Y-113195020D01*
X141832374Y-113196358D01*
X141820549Y-113196804D01*
X141808724Y-113196358D01*
X141796966Y-113195020D01*
X141785340Y-113192791D01*
X141773912Y-113189670D01*
X141762749Y-113185657D01*
X141751916Y-113180753D01*
X141741481Y-113174957D01*
X141731508Y-113168269D01*
X141722065Y-113160689D01*
X141713218Y-113152218D01*
X141705032Y-113142855D01*
X141697573Y-113132600D01*
X141690909Y-113121453D01*
X141685104Y-113109415D01*
X141680226Y-113096485D01*
X141676341Y-113082663D01*
X141310179Y-111530913D01*
X141307417Y-111520815D01*
X141303984Y-111511023D01*
X141299905Y-111501564D01*
X141295207Y-111492464D01*
X141289915Y-111483749D01*
X141284056Y-111475445D01*
X141277656Y-111467578D01*
X141270741Y-111460174D01*
X141263337Y-111453260D01*
X141255469Y-111446860D01*
X141247165Y-111441002D01*
X141238450Y-111435711D01*
X141229349Y-111431013D01*
X141219890Y-111426935D01*
X141210098Y-111423502D01*
X141200000Y-111420741D01*
X139648254Y-111054579D01*
X139634432Y-111050693D01*
X139621503Y-111045815D01*
X139609465Y-111040011D01*
X139598318Y-111033346D01*
X139588064Y-111025888D01*
X139578701Y-111017702D01*
X139570230Y-111008854D01*
X139562650Y-110999411D01*
X139555962Y-110989439D01*
X139550166Y-110979003D01*
X139545262Y-110968171D01*
X139541249Y-110957008D01*
X139538128Y-110945580D01*
X139535899Y-110933954D01*
X139534561Y-110922195D01*
X139534116Y-110910370D01*
X139534561Y-110898545D01*
X139535899Y-110886787D01*
X139538128Y-110875161D01*
X139541249Y-110863733D01*
X139545262Y-110852570D01*
X139550166Y-110841737D01*
X139555962Y-110831302D01*
X139562650Y-110821329D01*
X139570230Y-110811886D01*
X139578701Y-110803039D01*
X139588064Y-110794853D01*
X139598318Y-110787394D01*
X139609465Y-110780730D01*
X139621503Y-110774925D01*
X139634432Y-110770047D01*
X139648254Y-110766162D01*
X141200000Y-110400000D01*
X141210098Y-110397238D01*
X141219890Y-110393805D01*
X141229349Y-110389726D01*
X141238450Y-110385028D01*
X141247165Y-110379736D01*
X141255469Y-110373877D01*
X141263337Y-110367477D01*
X141270741Y-110360562D01*
X141277656Y-110353158D01*
X141284056Y-110345290D01*
X141289915Y-110336986D01*
X141295207Y-110328271D01*
X141299905Y-110319170D01*
X141303984Y-110309711D01*
X141307417Y-110299919D01*
X141310179Y-110289821D01*
X141676341Y-108738075D01*
X141680226Y-108724253D01*
X141685104Y-108711324D01*
X141690909Y-108699286D01*
X141697573Y-108688139D01*
X141705032Y-108677885D01*
X141713218Y-108668522D01*
X141722065Y-108660051D01*
X141731508Y-108652471D01*
X141741481Y-108645783D01*
X141751916Y-108639987D01*
X141762749Y-108635083D01*
X141773912Y-108631070D01*
X141785340Y-108627949D01*
X141796966Y-108625720D01*
X141808724Y-108624382D01*
X141820549Y-108623936D01*
X141832374Y-108624382D01*
G37*
%TD.AperFunction*%
%TA.AperFunction,NonConductor*%
G36*
X155811825Y-89514012D02*
G01*
X155823584Y-89515350D01*
X155835210Y-89517579D01*
X155846638Y-89520700D01*
X155857801Y-89524713D01*
X155868633Y-89529617D01*
X155879069Y-89535413D01*
X155889041Y-89542101D01*
X155898484Y-89549681D01*
X155907332Y-89558152D01*
X155915518Y-89567515D01*
X155922976Y-89577769D01*
X155929641Y-89588916D01*
X155935445Y-89600954D01*
X155940323Y-89613883D01*
X155944209Y-89627705D01*
X156310371Y-91179451D01*
X156313132Y-91189549D01*
X156316565Y-91199341D01*
X156320643Y-91208800D01*
X156325341Y-91217901D01*
X156330632Y-91226616D01*
X156336490Y-91234920D01*
X156342890Y-91242788D01*
X156349804Y-91250192D01*
X156357208Y-91257107D01*
X156365075Y-91263507D01*
X156373379Y-91269366D01*
X156382094Y-91274658D01*
X156391194Y-91279356D01*
X156400653Y-91283435D01*
X156410445Y-91286868D01*
X156420543Y-91289630D01*
X157972293Y-91655792D01*
X157986115Y-91659677D01*
X157999045Y-91664555D01*
X158011083Y-91670360D01*
X158022230Y-91677024D01*
X158032485Y-91684483D01*
X158041848Y-91692669D01*
X158050319Y-91701516D01*
X158057899Y-91710959D01*
X158064587Y-91720932D01*
X158070383Y-91731367D01*
X158075287Y-91742200D01*
X158079300Y-91753363D01*
X158082421Y-91764791D01*
X158084650Y-91776417D01*
X158085988Y-91788175D01*
X158086434Y-91800000D01*
X158085988Y-91811825D01*
X158084650Y-91823584D01*
X158082421Y-91835210D01*
X158079300Y-91846638D01*
X158075287Y-91857801D01*
X158070383Y-91868633D01*
X158064587Y-91879069D01*
X158057899Y-91889041D01*
X158050319Y-91898484D01*
X158041848Y-91907332D01*
X158032485Y-91915518D01*
X158022230Y-91922976D01*
X158011083Y-91929641D01*
X157999045Y-91935445D01*
X157986115Y-91940323D01*
X157972293Y-91944209D01*
X156420543Y-92310371D01*
X156410445Y-92313132D01*
X156400653Y-92316565D01*
X156391194Y-92320643D01*
X156382094Y-92325341D01*
X156373379Y-92330632D01*
X156365075Y-92336490D01*
X156357208Y-92342890D01*
X156349804Y-92349804D01*
X156342890Y-92357208D01*
X156336490Y-92365075D01*
X156330632Y-92373379D01*
X156325341Y-92382094D01*
X156320643Y-92391194D01*
X156316565Y-92400653D01*
X156313132Y-92410445D01*
X156310371Y-92420543D01*
X155944209Y-93972293D01*
X155940323Y-93986115D01*
X155935445Y-93999045D01*
X155929641Y-94011083D01*
X155922976Y-94022230D01*
X155915518Y-94032485D01*
X155907332Y-94041848D01*
X155898484Y-94050319D01*
X155889041Y-94057899D01*
X155879069Y-94064587D01*
X155868633Y-94070383D01*
X155857801Y-94075287D01*
X155846638Y-94079300D01*
X155835210Y-94082421D01*
X155823584Y-94084650D01*
X155811825Y-94085988D01*
X155800000Y-94086434D01*
X155788175Y-94085988D01*
X155776417Y-94084650D01*
X155764791Y-94082421D01*
X155753363Y-94079300D01*
X155742200Y-94075287D01*
X155731367Y-94070383D01*
X155720932Y-94064587D01*
X155710959Y-94057899D01*
X155701516Y-94050319D01*
X155692669Y-94041848D01*
X155684483Y-94032485D01*
X155677024Y-94022230D01*
X155670360Y-94011083D01*
X155664555Y-93999045D01*
X155659677Y-93986115D01*
X155655792Y-93972293D01*
X155289630Y-92420543D01*
X155286868Y-92410445D01*
X155283435Y-92400653D01*
X155279356Y-92391194D01*
X155274658Y-92382094D01*
X155269366Y-92373379D01*
X155263507Y-92365075D01*
X155257107Y-92357208D01*
X155250192Y-92349804D01*
X155242788Y-92342890D01*
X155234920Y-92336490D01*
X155226616Y-92330632D01*
X155217901Y-92325341D01*
X155208800Y-92320643D01*
X155199341Y-92316565D01*
X155189549Y-92313132D01*
X155179451Y-92310371D01*
X153627705Y-91944209D01*
X153613883Y-91940323D01*
X153600954Y-91935445D01*
X153588916Y-91929641D01*
X153577769Y-91922976D01*
X153567515Y-91915518D01*
X153558152Y-91907332D01*
X153549681Y-91898484D01*
X153542101Y-91889041D01*
X153535413Y-91879069D01*
X153529617Y-91868633D01*
X153524713Y-91857801D01*
X153520700Y-91846638D01*
X153517579Y-91835210D01*
X153515350Y-91823584D01*
X153514012Y-91811825D01*
X153513567Y-91800000D01*
X153514012Y-91788175D01*
X153515350Y-91776417D01*
X153517579Y-91764791D01*
X153520700Y-91753363D01*
X153524713Y-91742200D01*
X153529617Y-91731367D01*
X153535413Y-91720932D01*
X153542101Y-91710959D01*
X153549681Y-91701516D01*
X153558152Y-91692669D01*
X153567515Y-91684483D01*
X153577769Y-91677024D01*
X153588916Y-91670360D01*
X153600954Y-91664555D01*
X153613883Y-91659677D01*
X153627705Y-91655792D01*
X155179451Y-91289630D01*
X155189549Y-91286868D01*
X155199341Y-91283435D01*
X155208800Y-91279356D01*
X155217901Y-91274658D01*
X155226616Y-91269366D01*
X155234920Y-91263507D01*
X155242788Y-91257107D01*
X155250192Y-91250192D01*
X155257107Y-91242788D01*
X155263507Y-91234920D01*
X155269366Y-91226616D01*
X155274658Y-91217901D01*
X155279356Y-91208800D01*
X155283435Y-91199341D01*
X155286868Y-91189549D01*
X155289630Y-91179451D01*
X155655792Y-89627705D01*
X155659677Y-89613883D01*
X155664555Y-89600954D01*
X155670360Y-89588916D01*
X155677024Y-89577769D01*
X155684483Y-89567515D01*
X155692669Y-89558152D01*
X155701516Y-89549681D01*
X155710959Y-89542101D01*
X155720932Y-89535413D01*
X155731367Y-89529617D01*
X155742200Y-89524713D01*
X155753363Y-89520700D01*
X155764791Y-89517579D01*
X155776417Y-89515350D01*
X155788175Y-89514012D01*
X155800000Y-89513566D01*
X155811825Y-89514012D01*
G37*
%TD.AperFunction*%
D11*
X118400000Y-64800000D02*
X119397991Y-64932196D01*
X120385448Y-65126551D01*
X121360243Y-65377798D01*
X122320249Y-65680669D01*
X123263337Y-66029898D01*
X124187380Y-66420217D01*
X125090250Y-66846360D01*
X125969820Y-67303059D01*
X126823960Y-67785047D01*
X127650545Y-68287058D01*
X128447445Y-68803823D01*
X129943682Y-69860549D01*
X131295649Y-70913090D01*
X132486323Y-71919307D01*
X133498682Y-72837065D01*
X134315704Y-73624227D01*
X134920367Y-74238654D01*
X135424524Y-74780761D01*
X136152998Y-75505036D01*
X137938623Y-77331286D01*
X139040460Y-78495195D01*
X140181698Y-79739649D01*
X141287374Y-80999665D01*
X141803450Y-81615202D01*
X142282525Y-82210260D01*
X142794323Y-82879231D01*
X143316855Y-83594209D01*
X143844083Y-84342892D01*
X144369969Y-85112974D01*
X145393571Y-86668128D01*
X146339364Y-88161242D01*
X147159053Y-89493890D01*
X147804340Y-90567644D01*
X148378525Y-91544760D01*
X154474523Y-82210260D01*
X161142021Y-74780761D01*
X163294927Y-73070632D01*
X165665389Y-71351027D01*
X167080592Y-70397022D01*
X168613480Y-69426666D01*
X170237330Y-68474798D01*
X171925420Y-67576255D01*
X173651027Y-66765875D01*
X175387428Y-66078497D01*
X177107901Y-65548957D01*
X177953813Y-65354264D01*
X178785722Y-65212095D01*
X179600288Y-65126805D01*
X180394170Y-65102749D01*
X181164028Y-65144280D01*
X181906522Y-65255755D01*
X182966563Y-65541194D01*
X183931480Y-65942585D01*
X184804215Y-66453462D01*
X185587710Y-67067359D01*
X186284907Y-67777811D01*
X186898749Y-68578352D01*
X187432178Y-69462516D01*
X187888137Y-70423837D01*
X188269567Y-71455849D01*
X188579411Y-72552086D01*
X188820612Y-73706084D01*
X188996111Y-74911375D01*
X189161776Y-77449975D01*
X189099943Y-80116160D01*
X188834151Y-82858204D01*
X188387940Y-85624379D01*
X187784848Y-88362960D01*
X187048413Y-91022219D01*
X186202174Y-93550430D01*
X185269670Y-95895867D01*
X184274439Y-98006801D01*
X183240020Y-99831508D01*
X182823743Y-100428786D01*
X182363237Y-100971997D01*
X181862267Y-101463444D01*
X181324603Y-101905428D01*
X180754010Y-102300253D01*
X180154256Y-102650220D01*
X179529108Y-102957632D01*
X178882334Y-103224790D01*
X178217700Y-103453997D01*
X177538974Y-103647555D01*
X176849923Y-103807766D01*
X176154315Y-103936933D01*
X175455916Y-104037357D01*
X174758493Y-104111341D01*
X173381647Y-104189197D01*
X172053915Y-104188918D01*
X170805433Y-104128922D01*
X169666340Y-104027626D01*
X168666773Y-103903448D01*
X167206769Y-103660114D01*
X166666523Y-103546260D01*
X167071462Y-103702235D01*
X168150134Y-104164376D01*
X168878304Y-104507547D01*
X169698325Y-104924005D01*
X170584673Y-105412665D01*
X171511820Y-105972444D01*
X172454238Y-106602256D01*
X173386402Y-107301017D01*
X174282783Y-108067641D01*
X174709579Y-108476064D01*
X175117856Y-108901045D01*
X175504425Y-109342450D01*
X175866094Y-109800144D01*
X176199672Y-110273990D01*
X176501969Y-110763852D01*
X176769793Y-111269597D01*
X176999954Y-111791086D01*
X177189261Y-112328186D01*
X177334523Y-112880761D01*
X177476941Y-113647593D01*
X177570607Y-114413352D01*
X177616787Y-115176577D01*
X177616751Y-115935810D01*
X177571766Y-116689589D01*
X177483099Y-117436455D01*
X177352020Y-118174946D01*
X177179796Y-118903604D01*
X176967694Y-119620968D01*
X176716983Y-120325577D01*
X176428931Y-121015972D01*
X176104805Y-121690693D01*
X175745874Y-122348278D01*
X175353405Y-122987269D01*
X174928667Y-123606204D01*
X174472928Y-124203624D01*
X173987454Y-124778069D01*
X173473515Y-125328078D01*
X172932379Y-125852191D01*
X172365312Y-126348948D01*
X171773584Y-126816888D01*
X171158461Y-127254553D01*
X170521213Y-127660480D01*
X169863107Y-128033211D01*
X169185410Y-128371286D01*
X168489392Y-128673242D01*
X167776319Y-128937622D01*
X167047460Y-129162964D01*
X166304083Y-129347809D01*
X165547455Y-129490696D01*
X164778845Y-129590164D01*
X163999521Y-129644755D01*
X163168051Y-129628427D01*
X162350640Y-129515979D01*
X161548096Y-129313748D01*
X160761229Y-129028074D01*
X159990847Y-128665292D01*
X159237761Y-128231740D01*
X158502778Y-127733756D01*
X157786708Y-127177678D01*
X157090360Y-126569842D01*
X156414544Y-125916586D01*
X155760067Y-125224248D01*
X155127740Y-124499165D01*
X153932770Y-122976114D01*
X152836105Y-121398133D01*
X151844220Y-119815921D01*
X150963586Y-118280179D01*
X150200675Y-116841606D01*
X149561962Y-115550901D01*
X148683014Y-113615895D01*
X148378525Y-112880761D01*
X147991072Y-113663519D01*
X146888529Y-115714180D01*
X146097139Y-117075469D01*
X145160623Y-118586327D01*
X144090197Y-120190953D01*
X142897078Y-121833544D01*
X141592480Y-123458298D01*
X140187620Y-125009412D01*
X139451097Y-125739917D01*
X138693713Y-126431085D01*
X137916872Y-127075943D01*
X137121975Y-127667515D01*
X136310424Y-128198825D01*
X135483621Y-128662899D01*
X134642968Y-129052761D01*
X133789868Y-129361435D01*
X132925721Y-129581947D01*
X132051930Y-129707321D01*
X131169897Y-129730582D01*
X130281024Y-129644755D01*
X129513300Y-129504266D01*
X128751697Y-129329868D01*
X127998154Y-129122479D01*
X127254613Y-128883016D01*
X126523013Y-128612398D01*
X125805297Y-128311540D01*
X125103404Y-127981361D01*
X124419274Y-127622778D01*
X123754849Y-127236708D01*
X123112068Y-126824069D01*
X122492873Y-126385778D01*
X121899204Y-125922752D01*
X121333002Y-125435910D01*
X120796207Y-124926167D01*
X120290760Y-124394442D01*
X119818601Y-123841652D01*
X119381671Y-123268715D01*
X118981910Y-122676547D01*
X118621259Y-122066067D01*
X118301659Y-121438191D01*
X118025051Y-120793837D01*
X117793374Y-120133922D01*
X117608569Y-119459364D01*
X117472577Y-118771080D01*
X117387339Y-118069987D01*
X117354794Y-117357004D01*
X117376885Y-116633046D01*
X117455550Y-115899032D01*
X117592731Y-115155880D01*
X117790369Y-114404505D01*
X118050403Y-113645826D01*
X118374775Y-112880761D01*
X118738131Y-112133277D01*
X119112823Y-111426012D01*
X119497352Y-110757884D01*
X119890217Y-110127812D01*
X120289920Y-109534714D01*
X120694959Y-108977510D01*
X121103835Y-108455117D01*
X121515048Y-107966455D01*
X121927099Y-107510442D01*
X122338486Y-107085997D01*
X122747711Y-106692039D01*
X123153274Y-106327485D01*
X123553674Y-105991256D01*
X123947411Y-105682269D01*
X124332987Y-105399443D01*
X124708900Y-105141697D01*
X125073651Y-104907950D01*
X125425740Y-104697120D01*
X126085932Y-104339886D01*
X126235307Y-104269550D01*
X125947863Y-104353769D01*
X125066263Y-104555873D01*
X124080018Y-104711933D01*
X123006290Y-104796416D01*
X121862241Y-104783789D01*
X121269209Y-104733079D01*
X120665033Y-104648518D01*
X120051857Y-104526912D01*
X119431827Y-104365070D01*
X118807089Y-104159800D01*
X118179787Y-103907911D01*
X117552066Y-103606212D01*
X116926072Y-103251509D01*
X116303950Y-102840613D01*
X115687846Y-102370330D01*
X115079904Y-101837470D01*
X114482270Y-101238841D01*
X113897089Y-100571251D01*
X113326507Y-99831508D01*
X112218322Y-98113171D01*
X111158273Y-96099457D01*
X110167708Y-93841014D01*
X109267975Y-91388490D01*
X108480420Y-88792532D01*
X107826391Y-86103789D01*
X107327236Y-83372909D01*
X107004302Y-80650541D01*
X106878938Y-77987331D01*
X106897015Y-76693738D01*
X106972490Y-75433928D01*
X107108030Y-74214232D01*
X107306305Y-73040981D01*
X107569983Y-71920506D01*
X107901732Y-70859137D01*
X108304221Y-69863206D01*
X108780119Y-68939045D01*
X109332092Y-68092982D01*
X109962811Y-67331351D01*
X110674944Y-66660482D01*
X111471158Y-66086706D01*
X112354123Y-65616353D01*
X113326507Y-65255755D01*
X114345251Y-64998149D01*
X115364100Y-64829038D01*
X116380926Y-64743154D01*
X117393602Y-64735231D01*
X118400000Y-64800000D01*
D12*
D13*
X111298684Y-86603152D02*
X110536779Y-86888866D01*
X110536779Y-86888866D02*
X111298684Y-87174580D01*
X111679636Y-86269819D02*
X112298683Y-86269819D01*
X112298683Y-86269819D02*
X111965350Y-86650771D01*
X111965350Y-86650771D02*
X112108207Y-86650771D01*
X112108207Y-86650771D02*
X112203445Y-86698390D01*
X112203445Y-86698390D02*
X112251064Y-86746009D01*
X112251064Y-86746009D02*
X112298683Y-86841247D01*
X112298683Y-86841247D02*
X112298683Y-87079342D01*
X112298683Y-87079342D02*
X112251064Y-87174580D01*
X112251064Y-87174580D02*
X112203445Y-87222200D01*
X112203445Y-87222200D02*
X112108207Y-87269819D01*
X112108207Y-87269819D02*
X111822493Y-87269819D01*
X111822493Y-87269819D02*
X111727255Y-87222200D01*
X111727255Y-87222200D02*
X111679636Y-87174580D01*
D12*
D13*
X155127255Y-119669819D02*
X155317731Y-119669819D01*
X155317731Y-119669819D02*
X155412969Y-119717438D01*
X155412969Y-119717438D02*
X155508207Y-119812676D01*
X155508207Y-119812676D02*
X155555826Y-120003152D01*
X155555826Y-120003152D02*
X155555826Y-120336485D01*
X155555826Y-120336485D02*
X155508207Y-120526961D01*
X155508207Y-120526961D02*
X155412969Y-120622200D01*
X155412969Y-120622200D02*
X155317731Y-120669819D01*
X155317731Y-120669819D02*
X155127255Y-120669819D01*
X155127255Y-120669819D02*
X155032017Y-120622200D01*
X155032017Y-120622200D02*
X154936779Y-120526961D01*
X154936779Y-120526961D02*
X154889160Y-120336485D01*
X154889160Y-120336485D02*
X154889160Y-120003152D01*
X154889160Y-120003152D02*
X154936779Y-119812676D01*
X154936779Y-119812676D02*
X155032017Y-119717438D01*
X155032017Y-119717438D02*
X155127255Y-119669819D01*
X156270112Y-121050771D02*
X156222493Y-121003152D01*
X156222493Y-121003152D02*
X156127255Y-120860295D01*
X156127255Y-120860295D02*
X156079636Y-120765057D01*
X156079636Y-120765057D02*
X156032017Y-120622200D01*
X156032017Y-120622200D02*
X155984398Y-120384104D01*
X155984398Y-120384104D02*
X155984398Y-120193628D01*
X155984398Y-120193628D02*
X156032017Y-119955533D01*
X156032017Y-119955533D02*
X156079636Y-119812676D01*
X156079636Y-119812676D02*
X156127255Y-119717438D01*
X156127255Y-119717438D02*
X156222493Y-119574580D01*
X156222493Y-119574580D02*
X156270112Y-119526961D01*
X157412970Y-120765057D02*
X156651065Y-120765057D01*
X156651065Y-120479342D02*
X157412970Y-120479342D01*
X156651065Y-120288866D02*
X157412970Y-120003152D01*
X157412970Y-120003152D02*
X156651065Y-119717438D01*
X158412969Y-119669819D02*
X158079636Y-120669819D01*
X158079636Y-120669819D02*
X157746303Y-119669819D01*
X157746303Y-119669819D02*
X158412969Y-119669819D01*
X158746303Y-120765057D02*
X159508208Y-120765057D01*
X159508208Y-120479342D02*
X158746303Y-120479342D01*
X159508208Y-120288866D02*
X158746303Y-120003152D01*
X158746303Y-120003152D02*
X159508208Y-119717438D01*
X159889160Y-121050771D02*
X159936779Y-121003152D01*
X159936779Y-121003152D02*
X160032017Y-120860295D01*
X160032017Y-120860295D02*
X160079636Y-120765057D01*
X160079636Y-120765057D02*
X160127255Y-120622200D01*
X160127255Y-120622200D02*
X160174874Y-120384104D01*
X160174874Y-120384104D02*
X160174874Y-120193628D01*
X160174874Y-120193628D02*
X160127255Y-119955533D01*
X160127255Y-119955533D02*
X160079636Y-119812676D01*
X160079636Y-119812676D02*
X160032017Y-119717438D01*
X160032017Y-119717438D02*
X159936779Y-119574580D01*
X159936779Y-119574580D02*
X159889160Y-119526961D01*
X160841541Y-119669819D02*
X161032017Y-119669819D01*
X161032017Y-119669819D02*
X161127255Y-119717438D01*
X161127255Y-119717438D02*
X161222493Y-119812676D01*
X161222493Y-119812676D02*
X161270112Y-120003152D01*
X161270112Y-120003152D02*
X161270112Y-120336485D01*
X161270112Y-120336485D02*
X161222493Y-120526961D01*
X161222493Y-120526961D02*
X161127255Y-120622200D01*
X161127255Y-120622200D02*
X161032017Y-120669819D01*
X161032017Y-120669819D02*
X160841541Y-120669819D01*
X160841541Y-120669819D02*
X160746303Y-120622200D01*
X160746303Y-120622200D02*
X160651065Y-120526961D01*
X160651065Y-120526961D02*
X160603446Y-120336485D01*
X160603446Y-120336485D02*
X160603446Y-120003152D01*
X160603446Y-120003152D02*
X160651065Y-119812676D01*
X160651065Y-119812676D02*
X160746303Y-119717438D01*
X160746303Y-119717438D02*
X160841541Y-119669819D01*
D14*
D15*
X166954510Y-100000828D02*
X166954510Y-98500828D01*
X167097368Y-99429400D02*
X167525939Y-100000828D01*
X167525939Y-99000828D02*
X166954510Y-99572257D01*
X168811654Y-100000828D02*
X168811654Y-99215114D01*
X168811654Y-99215114D02*
X168740225Y-99072257D01*
X168740225Y-99072257D02*
X168597368Y-99000828D01*
X168597368Y-99000828D02*
X168311654Y-99000828D01*
X168311654Y-99000828D02*
X168168796Y-99072257D01*
X168811654Y-99929400D02*
X168668796Y-100000828D01*
X168668796Y-100000828D02*
X168311654Y-100000828D01*
X168311654Y-100000828D02*
X168168796Y-99929400D01*
X168168796Y-99929400D02*
X168097368Y-99786542D01*
X168097368Y-99786542D02*
X168097368Y-99643685D01*
X168097368Y-99643685D02*
X168168796Y-99500828D01*
X168168796Y-99500828D02*
X168311654Y-99429400D01*
X168311654Y-99429400D02*
X168668796Y-99429400D01*
X168668796Y-99429400D02*
X168811654Y-99357971D01*
X169383082Y-99000828D02*
X169740225Y-100000828D01*
X170097368Y-99000828D02*
X169740225Y-100000828D01*
X169740225Y-100000828D02*
X169597368Y-100357971D01*
X169597368Y-100357971D02*
X169525939Y-100429400D01*
X169525939Y-100429400D02*
X169383082Y-100500828D01*
X170883082Y-100000828D02*
X170740225Y-99929400D01*
X170740225Y-99929400D02*
X170668796Y-99786542D01*
X170668796Y-99786542D02*
X170668796Y-98500828D01*
X172025939Y-99929400D02*
X171883082Y-100000828D01*
X171883082Y-100000828D02*
X171597368Y-100000828D01*
X171597368Y-100000828D02*
X171454510Y-99929400D01*
X171454510Y-99929400D02*
X171383082Y-99786542D01*
X171383082Y-99786542D02*
X171383082Y-99215114D01*
X171383082Y-99215114D02*
X171454510Y-99072257D01*
X171454510Y-99072257D02*
X171597368Y-99000828D01*
X171597368Y-99000828D02*
X171883082Y-99000828D01*
X171883082Y-99000828D02*
X172025939Y-99072257D01*
X172025939Y-99072257D02*
X172097368Y-99215114D01*
X172097368Y-99215114D02*
X172097368Y-99357971D01*
X172097368Y-99357971D02*
X171383082Y-99500828D01*
X173311653Y-99929400D02*
X173168796Y-100000828D01*
X173168796Y-100000828D02*
X172883082Y-100000828D01*
X172883082Y-100000828D02*
X172740224Y-99929400D01*
X172740224Y-99929400D02*
X172668796Y-99786542D01*
X172668796Y-99786542D02*
X172668796Y-99215114D01*
X172668796Y-99215114D02*
X172740224Y-99072257D01*
X172740224Y-99072257D02*
X172883082Y-99000828D01*
X172883082Y-99000828D02*
X173168796Y-99000828D01*
X173168796Y-99000828D02*
X173311653Y-99072257D01*
X173311653Y-99072257D02*
X173383082Y-99215114D01*
X173383082Y-99215114D02*
X173383082Y-99357971D01*
X173383082Y-99357971D02*
X172668796Y-99500828D01*
X175811653Y-100000828D02*
X175811653Y-98500828D01*
X175811653Y-99929400D02*
X175668795Y-100000828D01*
X175668795Y-100000828D02*
X175383081Y-100000828D01*
X175383081Y-100000828D02*
X175240224Y-99929400D01*
X175240224Y-99929400D02*
X175168795Y-99857971D01*
X175168795Y-99857971D02*
X175097367Y-99715114D01*
X175097367Y-99715114D02*
X175097367Y-99286542D01*
X175097367Y-99286542D02*
X175168795Y-99143685D01*
X175168795Y-99143685D02*
X175240224Y-99072257D01*
X175240224Y-99072257D02*
X175383081Y-99000828D01*
X175383081Y-99000828D02*
X175668795Y-99000828D01*
X175668795Y-99000828D02*
X175811653Y-99072257D01*
X176525938Y-100000828D02*
X176525938Y-99000828D01*
X176525938Y-98500828D02*
X176454510Y-98572257D01*
X176454510Y-98572257D02*
X176525938Y-98643685D01*
X176525938Y-98643685D02*
X176597367Y-98572257D01*
X176597367Y-98572257D02*
X176525938Y-98500828D01*
X176525938Y-98500828D02*
X176525938Y-98643685D01*
X177240224Y-99000828D02*
X177240224Y-100000828D01*
X177240224Y-99143685D02*
X177311653Y-99072257D01*
X177311653Y-99072257D02*
X177454510Y-99000828D01*
X177454510Y-99000828D02*
X177668796Y-99000828D01*
X177668796Y-99000828D02*
X177811653Y-99072257D01*
X177811653Y-99072257D02*
X177883082Y-99215114D01*
X177883082Y-99215114D02*
X177883082Y-100000828D01*
X178597367Y-100000828D02*
X178597367Y-98500828D01*
X179240225Y-100000828D02*
X179240225Y-99215114D01*
X179240225Y-99215114D02*
X179168796Y-99072257D01*
X179168796Y-99072257D02*
X179025939Y-99000828D01*
X179025939Y-99000828D02*
X178811653Y-99000828D01*
X178811653Y-99000828D02*
X178668796Y-99072257D01*
X178668796Y-99072257D02*
X178597367Y-99143685D01*
D16*
%TO.P,R3,1*%
%TO.N,Net-(BT1--)*%
X155380000Y-101800000D03*
%TO.P,R3,2*%
%TO.N,Net-(Q2-E)*%
X163000000Y-101800000D03*
%TD*%
%TO.P,R2,1*%
%TO.N,Net-(D2-K)*%
X148200000Y-109210000D03*
%TO.P,R2,2*%
%TO.N,Net-(Q2-C)*%
X148200000Y-101590000D03*
%TD*%
D17*
%TO.P,BT1,1,+*%
%TO.N,Net-(BT1-+)*%
X115015000Y-87600000D03*
X136985000Y-87600000D03*
D18*
%TO.P,BT1,2,-*%
%TO.N,Net-(BT1--)*%
X126000000Y-87600000D03*
%TD*%
D19*
%TO.P,D2,1,K*%
%TO.N,Net-(D2-K)*%
X164260000Y-117400000D03*
D20*
%TO.P,D2,2,A*%
%TO.N,Net-(D1-A)*%
X166800000Y-117400000D03*
%TD*%
D21*
%TO.P,Q2,1,C*%
%TO.N,Net-(Q2-C)*%
X159460000Y-109200000D03*
D22*
%TO.P,Q2,2,B*%
%TO.N,Net-(Q2-B)*%
X160730000Y-107130000D03*
%TO.P,Q2,3,E*%
%TO.N,Net-(Q2-E)*%
X162000000Y-109200000D03*
%TD*%
D21*
%TO.P,Q1,1,C*%
%TO.N,Net-(D1-A)*%
X133330000Y-109670000D03*
D22*
%TO.P,Q1,2,B*%
X134600000Y-107600000D03*
%TO.P,Q1,3,E*%
%TO.N,Net-(Q1-E)*%
X135870000Y-109670000D03*
%TD*%
D16*
%TO.P,R1,1*%
%TO.N,Net-(D1-K)*%
X131590000Y-102200000D03*
%TO.P,R1,2*%
%TO.N,Net-(Q2-C)*%
X139210000Y-102200000D03*
%TD*%
D19*
%TO.P,D1,1,K*%
%TO.N,Net-(D1-K)*%
X128925000Y-117400000D03*
D20*
%TO.P,D1,2,A*%
%TO.N,Net-(D1-A)*%
X131465000Y-117400000D03*
%TD*%
D23*
%TO.P,SW1,1,1*%
%TO.N,Net-(BT1-+)*%
X161500000Y-89900000D03*
X168000000Y-89900000D03*
%TO.P,SW1,2,2*%
%TO.N,Net-(D1-A)*%
X161500000Y-94400000D03*
X168000000Y-94400000D03*
%TD*%
D24*
%TO.P,RV1,1,1*%
%TO.N,Net-(Q1-E)*%
X175600000Y-83880000D03*
%TO.P,RV1,2,2*%
%TO.N,Net-(Q2-B)*%
X178140000Y-81340000D03*
%TO.P,RV1,3,3*%
%TO.N,unconnected-(RV1-Pad3)*%
X175600000Y-78800000D03*
%TD*%
D25*
%TO.N,Net-(BT1-+)*%
X121600000Y-102000000D03*
%TO.N,Net-(D1-A)*%
X156200000Y-104600000D03*
X150800000Y-103000000D03*
%TD*%
D26*
%TO.N,Net-(BT1--)*%
X126000000Y-87600000D02*
X138200000Y-99800000D01*
X138200000Y-99800000D02*
X153380000Y-99800000D01*
X153380000Y-99800000D02*
X155380000Y-101800000D01*
%TO.N,Net-(BT1-+)*%
X115015000Y-97615000D02*
X115015000Y-87600000D01*
X161500000Y-89900000D02*
X168000000Y-89900000D01*
X136985000Y-84860000D02*
X136985000Y-87600000D01*
X121600000Y-102000000D02*
X119400000Y-102000000D01*
X130524000Y-78399000D02*
X136985000Y-84860000D01*
X119400000Y-102000000D02*
X115015000Y-97615000D01*
X122188821Y-78399000D02*
X130524000Y-78399000D01*
X115015000Y-85572821D02*
X122188821Y-78399000D01*
X115015000Y-87600000D02*
X115015000Y-85572821D01*
%TO.N,Net-(D1-A)*%
X164800000Y-106000000D02*
X172000000Y-113200000D01*
X131465000Y-117400000D02*
X131465000Y-111135000D01*
X133400000Y-109200000D02*
X133330000Y-109270000D01*
X156200000Y-104600000D02*
X157800000Y-104600000D01*
X157800000Y-104600000D02*
X163400000Y-99000000D01*
X131465000Y-111135000D02*
X133330000Y-109270000D01*
X150800000Y-103000000D02*
X148000000Y-105800000D01*
X168000000Y-94400000D02*
X161500000Y-94400000D01*
X172000000Y-113200000D02*
X172000000Y-117400000D01*
X163400000Y-99000000D02*
X161500000Y-97100000D01*
X168000000Y-94400000D02*
X164800000Y-97600000D01*
X148000000Y-105800000D02*
X133400000Y-105800000D01*
X164800000Y-97600000D02*
X164800000Y-106000000D01*
X133400000Y-105800000D02*
X133400000Y-109200000D01*
X161500000Y-97100000D02*
X161500000Y-94400000D01*
X172000000Y-117400000D02*
X166800000Y-117400000D01*
%TO.N,Net-(D1-K)*%
X122200000Y-111590000D02*
X122200000Y-114200000D01*
X131590000Y-102200000D02*
X122200000Y-111590000D01*
X122200000Y-114200000D02*
X125400000Y-117400000D01*
X125400000Y-117400000D02*
X128925000Y-117400000D01*
%TO.N,Net-(D2-K)*%
X164260000Y-117400000D02*
X156390000Y-117400000D01*
X156390000Y-117400000D02*
X148200000Y-109210000D01*
%TO.N,Net-(Q2-C)*%
X154800000Y-108800000D02*
X151800000Y-105800000D01*
X145200000Y-102200000D02*
X145810000Y-101590000D01*
X151800000Y-105800000D02*
X151800000Y-103000000D01*
X150390000Y-101590000D02*
X148200000Y-101590000D01*
X159460000Y-108800000D02*
X154800000Y-108800000D01*
X139210000Y-102200000D02*
X145200000Y-102200000D01*
X151800000Y-103000000D02*
X150390000Y-101590000D01*
X145810000Y-101590000D02*
X148200000Y-101590000D01*
%TO.N,Net-(Q2-E)*%
X162000000Y-108800000D02*
X163000000Y-107800000D01*
X163000000Y-107800000D02*
X163000000Y-101800000D01*
%TD*%
M02*
