%TF.GenerationSoftware,KiCad,Pcbnew,9.0.2*%
%TF.CreationDate,2025-06-28T05:17:50-07:00*%
%TF.ProjectId,butterfly5,62757474-6572-4666-9c79-352e6b696361,rev?*%
%TF.SameCoordinates,Original*%
%TF.FileFunction,Legend,Bot*%
%TF.FilePolarity,Positive*%
%FSLAX46Y46*%
G04 Gerber Fmt 4.6, Leading zero omitted, Abs format (unit mm)*
G04 Created by KiCad (PCBNEW 9.0.2) date 2025-06-28 05:17:50*
%MOMM*%
%LPD*%
G01*
G04 APERTURE LIST*
%ADD10C,0.000000*%
%ADD11C,0.761999*%
%ADD12C,0.063499*%
%ADD13C,0.132291*%
%ADD14C,0.100000*%
G04 APERTURE END LIST*
D10*
G36*
X116814781Y-81742515D02*
G01*
X116829479Y-81744187D01*
X116844012Y-81746974D01*
X116858297Y-81750875D01*
X116872251Y-81755891D01*
X116885791Y-81762021D01*
X116898836Y-81769266D01*
X116911301Y-81777626D01*
X116923105Y-81787101D01*
X116934165Y-81797690D01*
X116944397Y-81809393D01*
X116953720Y-81822211D01*
X116962050Y-81836144D01*
X116969306Y-81851192D01*
X116975404Y-81867354D01*
X116980261Y-81884631D01*
X117437963Y-83824313D01*
X117441415Y-83836937D01*
X117445706Y-83849176D01*
X117450804Y-83861000D01*
X117456676Y-83872376D01*
X117463289Y-83883270D01*
X117470612Y-83893650D01*
X117478612Y-83903485D01*
X117487255Y-83912740D01*
X117496510Y-83921384D01*
X117506344Y-83929384D01*
X117516724Y-83936707D01*
X117527617Y-83943322D01*
X117538992Y-83949194D01*
X117550816Y-83954293D01*
X117563056Y-83958585D01*
X117575679Y-83962037D01*
X119515366Y-84419739D01*
X119532643Y-84424596D01*
X119548806Y-84430694D01*
X119563854Y-84437950D01*
X119577787Y-84446280D01*
X119590605Y-84455603D01*
X119602309Y-84465835D01*
X119612899Y-84476895D01*
X119622373Y-84488699D01*
X119630733Y-84501164D01*
X119637978Y-84514209D01*
X119644109Y-84527749D01*
X119649125Y-84541703D01*
X119653026Y-84555988D01*
X119655813Y-84570521D01*
X119657485Y-84585219D01*
X119658042Y-84600000D01*
X119657485Y-84614781D01*
X119655813Y-84629479D01*
X119653026Y-84644012D01*
X119649125Y-84658297D01*
X119644109Y-84672251D01*
X119637978Y-84685791D01*
X119630733Y-84698836D01*
X119622373Y-84711301D01*
X119612899Y-84723105D01*
X119602309Y-84734165D01*
X119590605Y-84744397D01*
X119577787Y-84753720D01*
X119563854Y-84762050D01*
X119548806Y-84769306D01*
X119532643Y-84775404D01*
X119515366Y-84780261D01*
X117575679Y-85237963D01*
X117563056Y-85241415D01*
X117550816Y-85245706D01*
X117538992Y-85250804D01*
X117527617Y-85256676D01*
X117516724Y-85263289D01*
X117506344Y-85270612D01*
X117496510Y-85278612D01*
X117487255Y-85287255D01*
X117478612Y-85296510D01*
X117470612Y-85306344D01*
X117463289Y-85316724D01*
X117456676Y-85327617D01*
X117450804Y-85338992D01*
X117445706Y-85350816D01*
X117441415Y-85363056D01*
X117437963Y-85375679D01*
X116980261Y-87315366D01*
X116975404Y-87332643D01*
X116969306Y-87348806D01*
X116962050Y-87363854D01*
X116953720Y-87377787D01*
X116944397Y-87390605D01*
X116934165Y-87402309D01*
X116923105Y-87412899D01*
X116911301Y-87422373D01*
X116898836Y-87430733D01*
X116885791Y-87437978D01*
X116872251Y-87444109D01*
X116858297Y-87449125D01*
X116844012Y-87453026D01*
X116829479Y-87455813D01*
X116814781Y-87457485D01*
X116800000Y-87458042D01*
X116785219Y-87457485D01*
X116770521Y-87455813D01*
X116755988Y-87453026D01*
X116741703Y-87449125D01*
X116727749Y-87444109D01*
X116714209Y-87437978D01*
X116701164Y-87430733D01*
X116688699Y-87422373D01*
X116676895Y-87412899D01*
X116665835Y-87402309D01*
X116655603Y-87390605D01*
X116646280Y-87377787D01*
X116637950Y-87363854D01*
X116630694Y-87348806D01*
X116624596Y-87332643D01*
X116619739Y-87315366D01*
X116162037Y-85375679D01*
X116158585Y-85363056D01*
X116154293Y-85350816D01*
X116149194Y-85338992D01*
X116143322Y-85327617D01*
X116136707Y-85316724D01*
X116129384Y-85306344D01*
X116121384Y-85296510D01*
X116112740Y-85287255D01*
X116103485Y-85278612D01*
X116093650Y-85270612D01*
X116083270Y-85263289D01*
X116072376Y-85256676D01*
X116061000Y-85250804D01*
X116049176Y-85245706D01*
X116036937Y-85241415D01*
X116024313Y-85237963D01*
X114084631Y-84780261D01*
X114067354Y-84775404D01*
X114051192Y-84769306D01*
X114036144Y-84762050D01*
X114022211Y-84753720D01*
X114009393Y-84744397D01*
X113997690Y-84734165D01*
X113987101Y-84723105D01*
X113977626Y-84711301D01*
X113969266Y-84698836D01*
X113962021Y-84685791D01*
X113955891Y-84672251D01*
X113950875Y-84658297D01*
X113946974Y-84644012D01*
X113944187Y-84629479D01*
X113942515Y-84614781D01*
X113941958Y-84600000D01*
X113942515Y-84585219D01*
X113944187Y-84570521D01*
X113946974Y-84555988D01*
X113950875Y-84541703D01*
X113955891Y-84527749D01*
X113962021Y-84514209D01*
X113969266Y-84501164D01*
X113977626Y-84488699D01*
X113987101Y-84476895D01*
X113997690Y-84465835D01*
X114009393Y-84455603D01*
X114022211Y-84446280D01*
X114036144Y-84437950D01*
X114051192Y-84430694D01*
X114067354Y-84424596D01*
X114084631Y-84419739D01*
X116024313Y-83962037D01*
X116036937Y-83958585D01*
X116049176Y-83954293D01*
X116061000Y-83949194D01*
X116072376Y-83943322D01*
X116083270Y-83936707D01*
X116093650Y-83929384D01*
X116103485Y-83921384D01*
X116112740Y-83912740D01*
X116121384Y-83903485D01*
X116129384Y-83893650D01*
X116136707Y-83883270D01*
X116143322Y-83872376D01*
X116149194Y-83861000D01*
X116154293Y-83849176D01*
X116158585Y-83836937D01*
X116162037Y-83824313D01*
X116619739Y-81884631D01*
X116624596Y-81867354D01*
X116630694Y-81851192D01*
X116637950Y-81836144D01*
X116646280Y-81822211D01*
X116655603Y-81809393D01*
X116665835Y-81797689D01*
X116676895Y-81787100D01*
X116688699Y-81777626D01*
X116701164Y-81769266D01*
X116714209Y-81762021D01*
X116727749Y-81755891D01*
X116741703Y-81750875D01*
X116755988Y-81746974D01*
X116770521Y-81744187D01*
X116785219Y-81742515D01*
X116800000Y-81741958D01*
X116814781Y-81742515D01*
G37*
D11*
X118400000Y-64800000D02*
X119397991Y-64932196D01*
X120385448Y-65126551D01*
X121360243Y-65377798D01*
X122320249Y-65680669D01*
X123263337Y-66029898D01*
X124187380Y-66420217D01*
X125090250Y-66846360D01*
X125969820Y-67303059D01*
X126823960Y-67785047D01*
X127650545Y-68287058D01*
X128447445Y-68803823D01*
X129943682Y-69860549D01*
X131295649Y-70913090D01*
X132486323Y-71919307D01*
X133498682Y-72837065D01*
X134315704Y-73624227D01*
X134920367Y-74238654D01*
X135424524Y-74780761D01*
X136152998Y-75505036D01*
X137938623Y-77331286D01*
X139040460Y-78495195D01*
X140181698Y-79739649D01*
X141287374Y-80999665D01*
X141803450Y-81615202D01*
X142282525Y-82210260D01*
X142794323Y-82879231D01*
X143316855Y-83594209D01*
X143844083Y-84342892D01*
X144369969Y-85112974D01*
X145393571Y-86668128D01*
X146339364Y-88161242D01*
X147159053Y-89493890D01*
X147804340Y-90567644D01*
X148378525Y-91544760D01*
X154474523Y-82210260D01*
X161142021Y-74780761D01*
X163294927Y-73070632D01*
X165665389Y-71351027D01*
X167080592Y-70397022D01*
X168613480Y-69426666D01*
X170237330Y-68474798D01*
X171925420Y-67576255D01*
X173651027Y-66765875D01*
X175387428Y-66078497D01*
X177107901Y-65548957D01*
X177953813Y-65354264D01*
X178785722Y-65212095D01*
X179600288Y-65126805D01*
X180394170Y-65102749D01*
X181164028Y-65144280D01*
X181906522Y-65255755D01*
X182966563Y-65541194D01*
X183931480Y-65942585D01*
X184804215Y-66453462D01*
X185587710Y-67067359D01*
X186284907Y-67777811D01*
X186898749Y-68578352D01*
X187432178Y-69462516D01*
X187888137Y-70423837D01*
X188269567Y-71455849D01*
X188579411Y-72552086D01*
X188820612Y-73706084D01*
X188996111Y-74911375D01*
X189161776Y-77449975D01*
X189099943Y-80116160D01*
X188834151Y-82858204D01*
X188387940Y-85624379D01*
X187784848Y-88362960D01*
X187048413Y-91022219D01*
X186202174Y-93550430D01*
X185269670Y-95895867D01*
X184274439Y-98006801D01*
X183240020Y-99831508D01*
X182823743Y-100428786D01*
X182363237Y-100971997D01*
X181862267Y-101463444D01*
X181324603Y-101905428D01*
X180754010Y-102300253D01*
X180154256Y-102650220D01*
X179529108Y-102957632D01*
X178882334Y-103224790D01*
X178217700Y-103453997D01*
X177538974Y-103647555D01*
X176849923Y-103807766D01*
X176154315Y-103936933D01*
X175455916Y-104037357D01*
X174758493Y-104111341D01*
X173381647Y-104189197D01*
X172053915Y-104188918D01*
X170805433Y-104128922D01*
X169666340Y-104027626D01*
X168666773Y-103903448D01*
X167206769Y-103660114D01*
X166666523Y-103546260D01*
X167071462Y-103702235D01*
X168150134Y-104164376D01*
X168878304Y-104507547D01*
X169698325Y-104924005D01*
X170584673Y-105412665D01*
X171511820Y-105972444D01*
X172454238Y-106602256D01*
X173386402Y-107301017D01*
X174282783Y-108067641D01*
X174709579Y-108476064D01*
X175117856Y-108901045D01*
X175504425Y-109342450D01*
X175866094Y-109800144D01*
X176199672Y-110273990D01*
X176501969Y-110763852D01*
X176769793Y-111269597D01*
X176999954Y-111791086D01*
X177189261Y-112328186D01*
X177334523Y-112880761D01*
X177476941Y-113647593D01*
X177570607Y-114413352D01*
X177616787Y-115176577D01*
X177616751Y-115935810D01*
X177571766Y-116689589D01*
X177483099Y-117436455D01*
X177352020Y-118174946D01*
X177179796Y-118903604D01*
X176967694Y-119620968D01*
X176716983Y-120325577D01*
X176428931Y-121015972D01*
X176104805Y-121690693D01*
X175745874Y-122348278D01*
X175353405Y-122987269D01*
X174928667Y-123606204D01*
X174472928Y-124203624D01*
X173987454Y-124778069D01*
X173473515Y-125328078D01*
X172932379Y-125852191D01*
X172365312Y-126348948D01*
X171773584Y-126816888D01*
X171158461Y-127254553D01*
X170521213Y-127660480D01*
X169863107Y-128033211D01*
X169185410Y-128371286D01*
X168489392Y-128673242D01*
X167776319Y-128937622D01*
X167047460Y-129162964D01*
X166304083Y-129347809D01*
X165547455Y-129490696D01*
X164778845Y-129590164D01*
X163999521Y-129644755D01*
X163168051Y-129628427D01*
X162350640Y-129515979D01*
X161548096Y-129313748D01*
X160761229Y-129028074D01*
X159990847Y-128665292D01*
X159237761Y-128231740D01*
X158502778Y-127733756D01*
X157786708Y-127177678D01*
X157090360Y-126569842D01*
X156414544Y-125916586D01*
X155760067Y-125224248D01*
X155127740Y-124499165D01*
X153932770Y-122976114D01*
X152836105Y-121398133D01*
X151844220Y-119815921D01*
X150963586Y-118280179D01*
X150200675Y-116841606D01*
X149561962Y-115550901D01*
X148683014Y-113615895D01*
X148378525Y-112880761D01*
X147991072Y-113663519D01*
X146888529Y-115714180D01*
X146097139Y-117075469D01*
X145160623Y-118586327D01*
X144090197Y-120190953D01*
X142897078Y-121833544D01*
X141592480Y-123458298D01*
X140187620Y-125009412D01*
X139451097Y-125739917D01*
X138693713Y-126431085D01*
X137916872Y-127075943D01*
X137121975Y-127667515D01*
X136310424Y-128198825D01*
X135483621Y-128662899D01*
X134642968Y-129052761D01*
X133789868Y-129361435D01*
X132925721Y-129581947D01*
X132051930Y-129707321D01*
X131169897Y-129730582D01*
X130281024Y-129644755D01*
X129513300Y-129504266D01*
X128751697Y-129329868D01*
X127998154Y-129122479D01*
X127254613Y-128883016D01*
X126523013Y-128612398D01*
X125805297Y-128311540D01*
X125103404Y-127981361D01*
X124419274Y-127622778D01*
X123754849Y-127236708D01*
X123112068Y-126824069D01*
X122492873Y-126385778D01*
X121899204Y-125922752D01*
X121333002Y-125435910D01*
X120796207Y-124926167D01*
X120290760Y-124394442D01*
X119818601Y-123841652D01*
X119381671Y-123268715D01*
X118981910Y-122676547D01*
X118621259Y-122066067D01*
X118301659Y-121438191D01*
X118025051Y-120793837D01*
X117793374Y-120133922D01*
X117608569Y-119459364D01*
X117472577Y-118771080D01*
X117387339Y-118069987D01*
X117354794Y-117357004D01*
X117376885Y-116633046D01*
X117455550Y-115899032D01*
X117592731Y-115155880D01*
X117790369Y-114404505D01*
X118050403Y-113645826D01*
X118374775Y-112880761D01*
X118738131Y-112133277D01*
X119112823Y-111426012D01*
X119497352Y-110757884D01*
X119890217Y-110127812D01*
X120289920Y-109534714D01*
X120694959Y-108977510D01*
X121103835Y-108455117D01*
X121515048Y-107966455D01*
X121927099Y-107510442D01*
X122338486Y-107085997D01*
X122747711Y-106692039D01*
X123153274Y-106327485D01*
X123553674Y-105991256D01*
X123947411Y-105682269D01*
X124332987Y-105399443D01*
X124708900Y-105141697D01*
X125073651Y-104907950D01*
X125425740Y-104697120D01*
X126085932Y-104339886D01*
X126235307Y-104269550D01*
X125947863Y-104353769D01*
X125066263Y-104555873D01*
X124080018Y-104711933D01*
X123006290Y-104796416D01*
X121862241Y-104783789D01*
X121269209Y-104733079D01*
X120665033Y-104648518D01*
X120051857Y-104526912D01*
X119431827Y-104365070D01*
X118807089Y-104159800D01*
X118179787Y-103907911D01*
X117552066Y-103606212D01*
X116926072Y-103251509D01*
X116303950Y-102840613D01*
X115687846Y-102370330D01*
X115079904Y-101837470D01*
X114482270Y-101238841D01*
X113897089Y-100571251D01*
X113326507Y-99831508D01*
X112218322Y-98113171D01*
X111158273Y-96099457D01*
X110167708Y-93841014D01*
X109267975Y-91388490D01*
X108480420Y-88792532D01*
X107826391Y-86103789D01*
X107327236Y-83372909D01*
X107004302Y-80650541D01*
X106878938Y-77987331D01*
X106897015Y-76693738D01*
X106972490Y-75433928D01*
X107108030Y-74214232D01*
X107306305Y-73040981D01*
X107569983Y-71920506D01*
X107901732Y-70859137D01*
X108304221Y-69863206D01*
X108780119Y-68939045D01*
X109332092Y-68092982D01*
X109962811Y-67331351D01*
X110674944Y-66660482D01*
X111471158Y-66086706D01*
X112354123Y-65616353D01*
X113326507Y-65255755D01*
X114345251Y-64998149D01*
X115364100Y-64829038D01*
X116380926Y-64743154D01*
X117393602Y-64735231D01*
X118400000Y-64800000D01*
D12*
X155270453Y-110857146D02*
X155383415Y-110872102D01*
X155495081Y-110894078D01*
X155605207Y-110922466D01*
X155713550Y-110956655D01*
X155819867Y-110996037D01*
X155923913Y-111040002D01*
X156025445Y-111087941D01*
X156124221Y-111139246D01*
X156219995Y-111193306D01*
X156312525Y-111249513D01*
X156401567Y-111307257D01*
X156487235Y-111366184D01*
X156569092Y-111425572D01*
X156646900Y-111484831D01*
X156720421Y-111543374D01*
X156789418Y-111600610D01*
X156853653Y-111655952D01*
X156912888Y-111708811D01*
X156966886Y-111758598D01*
X156991854Y-111782167D01*
X157015432Y-111804755D01*
X157058297Y-111846688D01*
X157095244Y-111883809D01*
X157126038Y-111915529D01*
X157139059Y-111929183D01*
X157150449Y-111941270D01*
X157160179Y-111951716D01*
X157168224Y-111960447D01*
X157174557Y-111967392D01*
X157179145Y-111972476D01*
X157180775Y-111974292D01*
X157181960Y-111975619D01*
X157182807Y-111976466D01*
X157186998Y-111980600D01*
X157203106Y-111996496D01*
X157228636Y-112021877D01*
X157262563Y-112055820D01*
X157303847Y-112097414D01*
X157351442Y-112145769D01*
X157404307Y-112199984D01*
X157461403Y-112259157D01*
X157584059Y-112388724D01*
X157647640Y-112457414D01*
X157711323Y-112527497D01*
X157774060Y-112598067D01*
X157834801Y-112668216D01*
X157892497Y-112737036D01*
X157946099Y-112803619D01*
X158003368Y-112878472D01*
X158061793Y-112958410D01*
X158120700Y-113042056D01*
X158179413Y-113128032D01*
X158237260Y-113214960D01*
X158293564Y-113301463D01*
X158398853Y-113467683D01*
X158446577Y-113544789D01*
X158490116Y-113616061D01*
X158561963Y-113735611D01*
X158582879Y-113770917D01*
X158600000Y-113800000D01*
X159249224Y-112805894D01*
X159250558Y-112803848D01*
X159252166Y-112802049D01*
X159993000Y-111976549D01*
X159994439Y-111974978D01*
X159996026Y-111973594D01*
X160016664Y-111997736D01*
X159996048Y-111973573D01*
X159996055Y-111973569D01*
X159996063Y-111973564D01*
X159996071Y-111973560D01*
X159996075Y-111973558D01*
X159996079Y-111973555D01*
X159996083Y-111973553D01*
X159996087Y-111973550D01*
X159996091Y-111973547D01*
X159996095Y-111973544D01*
X159996099Y-111973541D01*
X159996103Y-111973538D01*
X159996107Y-111973534D01*
X159996111Y-111973530D01*
X159996119Y-111973522D01*
X159996129Y-111973513D01*
X159996150Y-111973495D01*
X159996175Y-111973474D01*
X159996203Y-111973452D01*
X159996234Y-111973428D01*
X159996268Y-111973402D01*
X159996344Y-111973346D01*
X159996412Y-111973282D01*
X159996490Y-111973211D01*
X159996578Y-111973132D01*
X159996674Y-111973047D01*
X159996894Y-111972856D01*
X159997148Y-111972641D01*
X160000344Y-111969955D01*
X160005562Y-111965559D01*
X160012747Y-111959537D01*
X160032899Y-111942864D01*
X160045758Y-111932328D01*
X160060415Y-111920408D01*
X160094917Y-111892655D01*
X160136041Y-111860085D01*
X160183416Y-111823183D01*
X160236670Y-111782431D01*
X160295427Y-111738320D01*
X160359340Y-111691316D01*
X160428037Y-111641906D01*
X160501145Y-111590575D01*
X160578293Y-111537809D01*
X160659107Y-111484094D01*
X160743216Y-111429915D01*
X160830247Y-111375758D01*
X160919818Y-111322117D01*
X161011639Y-111269428D01*
X161105337Y-111218185D01*
X161200537Y-111168879D01*
X161296863Y-111122005D01*
X161393942Y-111078054D01*
X161491400Y-111037521D01*
X161588860Y-111000898D01*
X161637407Y-110984229D01*
X161685891Y-110968695D01*
X161734263Y-110954363D01*
X161782471Y-110941301D01*
X161830467Y-110929577D01*
X161878201Y-110919259D01*
X161925622Y-110910414D01*
X161972681Y-110903111D01*
X162019328Y-110897416D01*
X162065512Y-110893398D01*
X162111184Y-110891124D01*
X162156294Y-110890663D01*
X162200793Y-110892081D01*
X162244629Y-110895447D01*
X162287754Y-110900829D01*
X162330117Y-110908294D01*
X162392595Y-110923034D01*
X162452278Y-110941220D01*
X162509208Y-110962750D01*
X162563427Y-110987524D01*
X162614976Y-111015443D01*
X162663897Y-111046405D01*
X162710232Y-111080311D01*
X162754022Y-111117060D01*
X162795308Y-111156552D01*
X162834133Y-111198687D01*
X162870537Y-111243364D01*
X162904564Y-111290483D01*
X162936253Y-111339944D01*
X162965647Y-111391646D01*
X162992787Y-111445490D01*
X163017716Y-111501374D01*
X163040385Y-111558946D01*
X163060965Y-111618370D01*
X163079499Y-111679553D01*
X163096033Y-111742400D01*
X163110612Y-111806819D01*
X163123280Y-111872717D01*
X163134083Y-111940001D01*
X163143065Y-112008577D01*
X163150271Y-112078352D01*
X163155745Y-112149234D01*
X163159534Y-112221128D01*
X163161680Y-112293942D01*
X163162230Y-112367583D01*
X163161229Y-112441957D01*
X163158720Y-112516971D01*
X163154749Y-112592532D01*
X163142588Y-112745051D01*
X163125061Y-112898971D01*
X163102496Y-113053574D01*
X163075218Y-113208140D01*
X163043553Y-113361950D01*
X163007825Y-113514282D01*
X162968363Y-113664419D01*
X162925490Y-113811640D01*
X162879534Y-113955225D01*
X162830819Y-114094454D01*
X162779672Y-114228609D01*
X162726419Y-114356970D01*
X162671385Y-114478816D01*
X162614896Y-114593428D01*
X162557278Y-114700086D01*
X162498858Y-114798071D01*
X162475506Y-114833329D01*
X162450841Y-114866974D01*
X162424921Y-114899039D01*
X162397800Y-114929560D01*
X162369534Y-114958571D01*
X162340179Y-114986106D01*
X162309791Y-115012201D01*
X162278426Y-115036889D01*
X162246139Y-115060205D01*
X162212986Y-115082183D01*
X162179023Y-115102858D01*
X162144306Y-115122265D01*
X162072832Y-115157410D01*
X161999009Y-115187895D01*
X161923285Y-115213995D01*
X161846105Y-115235987D01*
X161767916Y-115254145D01*
X161689164Y-115268746D01*
X161610295Y-115280066D01*
X161531755Y-115288381D01*
X161453991Y-115293966D01*
X161377448Y-115297097D01*
X161308544Y-115298042D01*
X161241127Y-115297359D01*
X161175517Y-115295243D01*
X161112033Y-115291892D01*
X161050997Y-115287502D01*
X160992727Y-115282270D01*
X160937544Y-115276393D01*
X160885767Y-115270067D01*
X160919603Y-115286761D01*
X160954806Y-115304647D01*
X160991218Y-115323718D01*
X161028679Y-115343968D01*
X161067031Y-115365392D01*
X161106116Y-115387983D01*
X161145774Y-115411738D01*
X161185847Y-115436649D01*
X161238497Y-115470883D01*
X161291397Y-115507173D01*
X161344169Y-115545507D01*
X161396435Y-115585872D01*
X161447818Y-115628256D01*
X161497942Y-115672648D01*
X161546427Y-115719034D01*
X161592898Y-115767404D01*
X161636976Y-115817745D01*
X161678283Y-115870045D01*
X161716443Y-115924291D01*
X161751078Y-115980472D01*
X161781811Y-116038576D01*
X161795596Y-116068345D01*
X161808263Y-116098590D01*
X161819767Y-116129310D01*
X161830058Y-116160503D01*
X161839091Y-116192168D01*
X161846818Y-116224302D01*
X161863005Y-116311417D01*
X161873659Y-116398391D01*
X161878924Y-116485060D01*
X161878946Y-116571259D01*
X161873867Y-116656824D01*
X161863832Y-116741589D01*
X161848986Y-116825390D01*
X161829472Y-116908063D01*
X161805433Y-116989443D01*
X161777016Y-117069365D01*
X161744363Y-117147664D01*
X161707618Y-117224175D01*
X161666926Y-117298735D01*
X161622430Y-117371178D01*
X161574276Y-117441340D01*
X161522606Y-117509056D01*
X161467566Y-117574161D01*
X161409298Y-117636490D01*
X161347947Y-117695880D01*
X161283658Y-117752165D01*
X161216574Y-117805180D01*
X161146840Y-117854762D01*
X161074599Y-117900744D01*
X160999996Y-117942964D01*
X160923174Y-117981255D01*
X160844278Y-118015453D01*
X160763452Y-118045394D01*
X160680840Y-118070912D01*
X160596586Y-118091844D01*
X160510834Y-118108024D01*
X160423728Y-118119288D01*
X160335413Y-118125471D01*
X160287060Y-118125962D01*
X160239165Y-118123581D01*
X160191739Y-118118427D01*
X160144796Y-118110598D01*
X160098347Y-118100193D01*
X160052406Y-118087313D01*
X160006984Y-118072056D01*
X159962094Y-118054521D01*
X159917748Y-118034807D01*
X159873960Y-118013013D01*
X159830741Y-117989238D01*
X159788103Y-117963582D01*
X159746060Y-117936144D01*
X159704624Y-117907022D01*
X159663806Y-117876315D01*
X159623620Y-117844124D01*
X159584034Y-117810502D01*
X159545038Y-117775532D01*
X159506643Y-117739302D01*
X159468861Y-117701904D01*
X159431702Y-117663428D01*
X159395177Y-117623964D01*
X159359298Y-117583603D01*
X159324075Y-117542436D01*
X159289519Y-117500552D01*
X159255641Y-117458042D01*
X159222453Y-117414996D01*
X159189965Y-117371506D01*
X159127133Y-117283551D01*
X159067233Y-117194900D01*
X159010259Y-117106133D01*
X158956315Y-117017976D01*
X158905492Y-116931137D01*
X158857879Y-116846325D01*
X158813566Y-116764245D01*
X158772643Y-116685607D01*
X158735199Y-116611118D01*
X158701325Y-116541485D01*
X158671082Y-116477361D01*
X158644575Y-116419475D01*
X158621889Y-116368535D01*
X158603112Y-116325246D01*
X158595915Y-116308228D01*
X158590062Y-116319920D01*
X158583702Y-116332485D01*
X158559998Y-116378441D01*
X158531473Y-116432447D01*
X158498280Y-116493729D01*
X158460576Y-116561509D01*
X158418520Y-116634994D01*
X158372244Y-116713454D01*
X158321905Y-116796109D01*
X158267657Y-116882181D01*
X158209657Y-116970891D01*
X158148060Y-117061461D01*
X158083022Y-117153112D01*
X158014700Y-117245065D01*
X157943258Y-117336515D01*
X157868751Y-117426820D01*
X157791334Y-117515185D01*
X157751581Y-117558391D01*
X157711159Y-117600813D01*
X157670086Y-117642352D01*
X157628381Y-117682909D01*
X157586063Y-117722384D01*
X157543153Y-117760677D01*
X157499668Y-117797689D01*
X157455629Y-117833321D01*
X157411054Y-117867473D01*
X157365962Y-117900046D01*
X157320346Y-117930960D01*
X157274181Y-117960135D01*
X157227489Y-117987463D01*
X157180293Y-118012835D01*
X157132615Y-118036142D01*
X157084477Y-118057276D01*
X157035900Y-118076127D01*
X156986907Y-118092586D01*
X156937520Y-118106545D01*
X156887761Y-118117894D01*
X156837652Y-118126525D01*
X156787214Y-118132328D01*
X156736471Y-118135195D01*
X156685444Y-118135017D01*
X156634155Y-118131685D01*
X156582626Y-118125090D01*
X156496044Y-118109249D01*
X156410131Y-118089582D01*
X156325108Y-118066190D01*
X156241192Y-118039173D01*
X156158604Y-118008633D01*
X156077563Y-117974669D01*
X155998288Y-117937382D01*
X155920998Y-117896874D01*
X155845913Y-117853244D01*
X155773251Y-117806595D01*
X155703233Y-117757025D01*
X155636077Y-117704636D01*
X155572003Y-117649528D01*
X155511229Y-117591803D01*
X155453976Y-117531561D01*
X155400462Y-117468902D01*
X155350742Y-117403693D01*
X155305230Y-117336242D01*
X155264152Y-117266658D01*
X155227732Y-117195050D01*
X155196196Y-117121528D01*
X155169768Y-117046200D01*
X155148673Y-116969178D01*
X155133137Y-116890568D01*
X155123384Y-116810482D01*
X155119639Y-116729028D01*
X155120090Y-116687822D01*
X155122128Y-116646315D01*
X155125780Y-116604521D01*
X155131075Y-116562453D01*
X155138040Y-116520125D01*
X155146705Y-116477551D01*
X155157096Y-116434744D01*
X155169243Y-116391718D01*
X155183173Y-116348487D01*
X155198914Y-116305064D01*
X155216495Y-116261463D01*
X155235944Y-116217698D01*
X155276410Y-116134420D01*
X155318141Y-116055554D01*
X155360976Y-115980982D01*
X155404749Y-115910588D01*
X155449300Y-115844256D01*
X155494464Y-115781870D01*
X155540078Y-115723312D01*
X155585979Y-115668466D01*
X155632005Y-115617216D01*
X155677993Y-115569445D01*
X155723778Y-115525037D01*
X155769199Y-115483875D01*
X155814092Y-115445842D01*
X155858294Y-115410823D01*
X155901642Y-115378700D01*
X155943973Y-115349357D01*
X155890210Y-115356376D01*
X155834321Y-115361585D01*
X155776499Y-115364692D01*
X155746925Y-115365367D01*
X155716941Y-115365407D01*
X155686571Y-115364775D01*
X155655840Y-115363436D01*
X155624771Y-115361353D01*
X155593390Y-115358489D01*
X155561720Y-115354808D01*
X155529786Y-115350274D01*
X155497613Y-115344850D01*
X155465223Y-115338499D01*
X155415357Y-115326919D01*
X155365179Y-115312972D01*
X155314773Y-115296535D01*
X155264227Y-115277483D01*
X155213627Y-115255692D01*
X155163059Y-115231038D01*
X155112608Y-115203398D01*
X155062362Y-115172647D01*
X155012407Y-115138662D01*
X154962828Y-115101319D01*
X154913711Y-115060492D01*
X154865144Y-115016060D01*
X154817212Y-114967897D01*
X154770001Y-114915879D01*
X154723598Y-114859884D01*
X154678088Y-114799786D01*
X154615251Y-114707692D01*
X154553517Y-114606688D01*
X154493181Y-114497481D01*
X154434536Y-114380777D01*
X154377877Y-114257282D01*
X154323497Y-114127702D01*
X154271690Y-113992744D01*
X154222750Y-113853113D01*
X154176970Y-113709515D01*
X154134646Y-113562658D01*
X154096070Y-113413247D01*
X154061537Y-113261988D01*
X154031340Y-113109588D01*
X154005774Y-112956753D01*
X153985131Y-112804189D01*
X153969707Y-112652601D01*
X153959781Y-112502455D01*
X153955669Y-112354429D01*
X153955894Y-112281438D01*
X153957694Y-112209248D01*
X153961109Y-112137950D01*
X153966178Y-112067635D01*
X153972943Y-111998393D01*
X153981444Y-111930315D01*
X153991721Y-111863491D01*
X154003815Y-111798012D01*
X154017765Y-111733968D01*
X154033612Y-111671451D01*
X154051396Y-111610549D01*
X154071158Y-111551355D01*
X154093011Y-111493784D01*
X154116959Y-111438069D01*
X154143041Y-111384309D01*
X154171298Y-111332605D01*
X154201770Y-111283056D01*
X154234498Y-111235765D01*
X154269523Y-111190829D01*
X154306883Y-111148351D01*
X154346621Y-111108429D01*
X154388776Y-111071165D01*
X154433388Y-111036658D01*
X154480499Y-111005009D01*
X154530147Y-110976318D01*
X154582375Y-110950686D01*
X154637221Y-110928212D01*
X154694727Y-110908997D01*
X154752616Y-110893058D01*
X154810516Y-110879712D01*
X154926227Y-110860494D01*
X155041615Y-110850733D01*
X155156439Y-110849820D01*
X155270453Y-110857146D01*
G36*
X155270453Y-110857146D02*
G01*
X155383415Y-110872102D01*
X155495081Y-110894078D01*
X155605207Y-110922466D01*
X155713550Y-110956655D01*
X155819867Y-110996037D01*
X155923913Y-111040002D01*
X156025445Y-111087941D01*
X156124221Y-111139246D01*
X156219995Y-111193306D01*
X156312525Y-111249513D01*
X156401567Y-111307257D01*
X156487235Y-111366184D01*
X156569092Y-111425572D01*
X156646900Y-111484831D01*
X156720421Y-111543374D01*
X156789418Y-111600610D01*
X156853653Y-111655952D01*
X156912888Y-111708811D01*
X156966886Y-111758598D01*
X156991854Y-111782167D01*
X157015432Y-111804755D01*
X157058297Y-111846688D01*
X157095244Y-111883809D01*
X157126038Y-111915529D01*
X157139059Y-111929183D01*
X157150449Y-111941270D01*
X157160179Y-111951716D01*
X157168224Y-111960447D01*
X157174557Y-111967392D01*
X157179145Y-111972476D01*
X157180775Y-111974292D01*
X157181960Y-111975619D01*
X157182807Y-111976466D01*
X157186998Y-111980600D01*
X157203106Y-111996496D01*
X157228636Y-112021877D01*
X157262563Y-112055820D01*
X157303847Y-112097414D01*
X157351442Y-112145769D01*
X157404307Y-112199984D01*
X157461403Y-112259157D01*
X157584059Y-112388724D01*
X157647640Y-112457414D01*
X157711323Y-112527497D01*
X157774060Y-112598067D01*
X157834801Y-112668216D01*
X157892497Y-112737036D01*
X157946099Y-112803619D01*
X158003368Y-112878472D01*
X158061793Y-112958410D01*
X158120700Y-113042056D01*
X158179413Y-113128032D01*
X158237260Y-113214960D01*
X158293564Y-113301463D01*
X158398853Y-113467683D01*
X158446577Y-113544789D01*
X158490116Y-113616061D01*
X158561963Y-113735611D01*
X158582879Y-113770917D01*
X158600000Y-113800000D01*
X159249224Y-112805894D01*
X159250558Y-112803848D01*
X159252166Y-112802049D01*
X159993000Y-111976549D01*
X159994439Y-111974978D01*
X159996026Y-111973594D01*
X160016664Y-111997736D01*
X159996048Y-111973573D01*
X159996055Y-111973569D01*
X159996063Y-111973564D01*
X159996071Y-111973560D01*
X159996075Y-111973558D01*
X159996079Y-111973555D01*
X159996083Y-111973553D01*
X159996087Y-111973550D01*
X159996091Y-111973547D01*
X159996095Y-111973544D01*
X159996099Y-111973541D01*
X159996103Y-111973538D01*
X159996107Y-111973534D01*
X159996111Y-111973530D01*
X159996119Y-111973522D01*
X159996129Y-111973513D01*
X159996150Y-111973495D01*
X159996175Y-111973474D01*
X159996203Y-111973452D01*
X159996234Y-111973428D01*
X159996268Y-111973402D01*
X159996344Y-111973346D01*
X159996412Y-111973282D01*
X159996490Y-111973211D01*
X159996578Y-111973132D01*
X159996674Y-111973047D01*
X159996894Y-111972856D01*
X159997148Y-111972641D01*
X160000344Y-111969955D01*
X160005562Y-111965559D01*
X160012747Y-111959537D01*
X160032899Y-111942864D01*
X160045758Y-111932328D01*
X160060415Y-111920408D01*
X160094917Y-111892655D01*
X160136041Y-111860085D01*
X160183416Y-111823183D01*
X160236670Y-111782431D01*
X160295427Y-111738320D01*
X160359340Y-111691316D01*
X160428037Y-111641906D01*
X160501145Y-111590575D01*
X160578293Y-111537809D01*
X160659107Y-111484094D01*
X160743216Y-111429915D01*
X160830247Y-111375758D01*
X160919818Y-111322117D01*
X161011639Y-111269428D01*
X161105337Y-111218185D01*
X161200537Y-111168879D01*
X161296863Y-111122005D01*
X161393942Y-111078054D01*
X161491400Y-111037521D01*
X161588860Y-111000898D01*
X161637407Y-110984229D01*
X161685891Y-110968695D01*
X161734263Y-110954363D01*
X161782471Y-110941301D01*
X161830467Y-110929577D01*
X161878201Y-110919259D01*
X161925622Y-110910414D01*
X161972681Y-110903111D01*
X162019328Y-110897416D01*
X162065512Y-110893398D01*
X162111184Y-110891124D01*
X162156294Y-110890663D01*
X162200793Y-110892081D01*
X162244629Y-110895447D01*
X162287754Y-110900829D01*
X162330117Y-110908294D01*
X162392595Y-110923034D01*
X162452278Y-110941220D01*
X162509208Y-110962750D01*
X162563427Y-110987524D01*
X162614976Y-111015443D01*
X162663897Y-111046405D01*
X162710232Y-111080311D01*
X162754022Y-111117060D01*
X162795308Y-111156552D01*
X162834133Y-111198687D01*
X162870537Y-111243364D01*
X162904564Y-111290483D01*
X162936253Y-111339944D01*
X162965647Y-111391646D01*
X162992787Y-111445490D01*
X163017716Y-111501374D01*
X163040385Y-111558946D01*
X163060965Y-111618370D01*
X163079499Y-111679553D01*
X163096033Y-111742400D01*
X163110612Y-111806819D01*
X163123280Y-111872717D01*
X163134083Y-111940001D01*
X163143065Y-112008577D01*
X163150271Y-112078352D01*
X163155745Y-112149234D01*
X163159534Y-112221128D01*
X163161680Y-112293942D01*
X163162230Y-112367583D01*
X163161229Y-112441957D01*
X163158720Y-112516971D01*
X163154749Y-112592532D01*
X163142588Y-112745051D01*
X163125061Y-112898971D01*
X163102496Y-113053574D01*
X163075218Y-113208140D01*
X163043553Y-113361950D01*
X163007825Y-113514282D01*
X162968363Y-113664419D01*
X162925490Y-113811640D01*
X162879534Y-113955225D01*
X162830819Y-114094454D01*
X162779672Y-114228609D01*
X162726419Y-114356970D01*
X162671385Y-114478816D01*
X162614896Y-114593428D01*
X162557278Y-114700086D01*
X162498858Y-114798071D01*
X162475506Y-114833329D01*
X162450841Y-114866974D01*
X162424921Y-114899039D01*
X162397800Y-114929560D01*
X162369534Y-114958571D01*
X162340179Y-114986106D01*
X162309791Y-115012201D01*
X162278426Y-115036889D01*
X162246139Y-115060205D01*
X162212986Y-115082183D01*
X162179023Y-115102858D01*
X162144306Y-115122265D01*
X162072832Y-115157410D01*
X161999009Y-115187895D01*
X161923285Y-115213995D01*
X161846105Y-115235987D01*
X161767916Y-115254145D01*
X161689164Y-115268746D01*
X161610295Y-115280066D01*
X161531755Y-115288381D01*
X161453991Y-115293966D01*
X161377448Y-115297097D01*
X161308544Y-115298042D01*
X161241127Y-115297359D01*
X161175517Y-115295243D01*
X161112033Y-115291892D01*
X161050997Y-115287502D01*
X160992727Y-115282270D01*
X160937544Y-115276393D01*
X160885767Y-115270067D01*
X160919603Y-115286761D01*
X160954806Y-115304647D01*
X160991218Y-115323718D01*
X161028679Y-115343968D01*
X161067031Y-115365392D01*
X161106116Y-115387983D01*
X161145774Y-115411738D01*
X161185847Y-115436649D01*
X161238497Y-115470883D01*
X161291397Y-115507173D01*
X161344169Y-115545507D01*
X161396435Y-115585872D01*
X161447818Y-115628256D01*
X161497942Y-115672648D01*
X161546427Y-115719034D01*
X161592898Y-115767404D01*
X161636976Y-115817745D01*
X161678283Y-115870045D01*
X161716443Y-115924291D01*
X161751078Y-115980472D01*
X161781811Y-116038576D01*
X161795596Y-116068345D01*
X161808263Y-116098590D01*
X161819767Y-116129310D01*
X161830058Y-116160503D01*
X161839091Y-116192168D01*
X161846818Y-116224302D01*
X161863005Y-116311417D01*
X161873659Y-116398391D01*
X161878924Y-116485060D01*
X161878946Y-116571259D01*
X161873867Y-116656824D01*
X161863832Y-116741589D01*
X161848986Y-116825390D01*
X161829472Y-116908063D01*
X161805433Y-116989443D01*
X161777016Y-117069365D01*
X161744363Y-117147664D01*
X161707618Y-117224175D01*
X161666926Y-117298735D01*
X161622430Y-117371178D01*
X161574276Y-117441340D01*
X161522606Y-117509056D01*
X161467566Y-117574161D01*
X161409298Y-117636490D01*
X161347947Y-117695880D01*
X161283658Y-117752165D01*
X161216574Y-117805180D01*
X161146840Y-117854762D01*
X161074599Y-117900744D01*
X160999996Y-117942964D01*
X160923174Y-117981255D01*
X160844278Y-118015453D01*
X160763452Y-118045394D01*
X160680840Y-118070912D01*
X160596586Y-118091844D01*
X160510834Y-118108024D01*
X160423728Y-118119288D01*
X160335413Y-118125471D01*
X160287060Y-118125962D01*
X160239165Y-118123581D01*
X160191739Y-118118427D01*
X160144796Y-118110598D01*
X160098347Y-118100193D01*
X160052406Y-118087313D01*
X160006984Y-118072056D01*
X159962094Y-118054521D01*
X159917748Y-118034807D01*
X159873960Y-118013013D01*
X159830741Y-117989238D01*
X159788103Y-117963582D01*
X159746060Y-117936144D01*
X159704624Y-117907022D01*
X159663806Y-117876315D01*
X159623620Y-117844124D01*
X159584034Y-117810502D01*
X159545038Y-117775532D01*
X159506643Y-117739302D01*
X159468861Y-117701904D01*
X159431702Y-117663428D01*
X159395177Y-117623964D01*
X159359298Y-117583603D01*
X159324075Y-117542436D01*
X159289519Y-117500552D01*
X159255641Y-117458042D01*
X159222453Y-117414996D01*
X159189965Y-117371506D01*
X159127133Y-117283551D01*
X159067233Y-117194900D01*
X159010259Y-117106133D01*
X158956315Y-117017976D01*
X158905492Y-116931137D01*
X158857879Y-116846325D01*
X158813566Y-116764245D01*
X158772643Y-116685607D01*
X158735199Y-116611118D01*
X158701325Y-116541485D01*
X158671082Y-116477361D01*
X158644575Y-116419475D01*
X158621889Y-116368535D01*
X158603112Y-116325246D01*
X158595915Y-116308228D01*
X158590062Y-116319920D01*
X158583702Y-116332485D01*
X158559998Y-116378441D01*
X158531473Y-116432447D01*
X158498280Y-116493729D01*
X158460576Y-116561509D01*
X158418520Y-116634994D01*
X158372244Y-116713454D01*
X158321905Y-116796109D01*
X158267657Y-116882181D01*
X158209657Y-116970891D01*
X158148060Y-117061461D01*
X158083022Y-117153112D01*
X158014700Y-117245065D01*
X157943258Y-117336515D01*
X157868751Y-117426820D01*
X157791334Y-117515185D01*
X157751581Y-117558391D01*
X157711159Y-117600813D01*
X157670086Y-117642352D01*
X157628381Y-117682909D01*
X157586063Y-117722384D01*
X157543153Y-117760677D01*
X157499668Y-117797689D01*
X157455629Y-117833321D01*
X157411054Y-117867473D01*
X157365962Y-117900046D01*
X157320346Y-117930960D01*
X157274181Y-117960135D01*
X157227489Y-117987463D01*
X157180293Y-118012835D01*
X157132615Y-118036142D01*
X157084477Y-118057276D01*
X157035900Y-118076127D01*
X156986907Y-118092586D01*
X156937520Y-118106545D01*
X156887761Y-118117894D01*
X156837652Y-118126525D01*
X156787214Y-118132328D01*
X156736471Y-118135195D01*
X156685444Y-118135017D01*
X156634155Y-118131685D01*
X156582626Y-118125090D01*
X156496044Y-118109249D01*
X156410131Y-118089582D01*
X156325108Y-118066190D01*
X156241192Y-118039173D01*
X156158604Y-118008633D01*
X156077563Y-117974669D01*
X155998288Y-117937382D01*
X155920998Y-117896874D01*
X155845913Y-117853244D01*
X155773251Y-117806595D01*
X155703233Y-117757025D01*
X155636077Y-117704636D01*
X155572003Y-117649528D01*
X155511229Y-117591803D01*
X155453976Y-117531561D01*
X155400462Y-117468902D01*
X155350742Y-117403693D01*
X155305230Y-117336242D01*
X155264152Y-117266658D01*
X155227732Y-117195050D01*
X155196196Y-117121528D01*
X155169768Y-117046200D01*
X155148673Y-116969178D01*
X155133137Y-116890568D01*
X155123384Y-116810482D01*
X155119639Y-116729028D01*
X155120090Y-116687822D01*
X155122128Y-116646315D01*
X155125780Y-116604521D01*
X155131075Y-116562453D01*
X155138040Y-116520125D01*
X155146705Y-116477551D01*
X155157096Y-116434744D01*
X155169243Y-116391718D01*
X155183173Y-116348487D01*
X155198914Y-116305064D01*
X155216495Y-116261463D01*
X155235944Y-116217698D01*
X155276410Y-116134420D01*
X155318141Y-116055554D01*
X155360976Y-115980982D01*
X155404749Y-115910588D01*
X155449300Y-115844256D01*
X155494464Y-115781870D01*
X155540078Y-115723312D01*
X155585979Y-115668466D01*
X155632005Y-115617216D01*
X155677993Y-115569445D01*
X155723778Y-115525037D01*
X155769199Y-115483875D01*
X155814092Y-115445842D01*
X155858294Y-115410823D01*
X155901642Y-115378700D01*
X155943973Y-115349357D01*
X155890210Y-115356376D01*
X155834321Y-115361585D01*
X155776499Y-115364692D01*
X155746925Y-115365367D01*
X155716941Y-115365407D01*
X155686571Y-115364775D01*
X155655840Y-115363436D01*
X155624771Y-115361353D01*
X155593390Y-115358489D01*
X155561720Y-115354808D01*
X155529786Y-115350274D01*
X155497613Y-115344850D01*
X155465223Y-115338499D01*
X155415357Y-115326919D01*
X155365179Y-115312972D01*
X155314773Y-115296535D01*
X155264227Y-115277483D01*
X155213627Y-115255692D01*
X155163059Y-115231038D01*
X155112608Y-115203398D01*
X155062362Y-115172647D01*
X155012407Y-115138662D01*
X154962828Y-115101319D01*
X154913711Y-115060492D01*
X154865144Y-115016060D01*
X154817212Y-114967897D01*
X154770001Y-114915879D01*
X154723598Y-114859884D01*
X154678088Y-114799786D01*
X154615251Y-114707692D01*
X154553517Y-114606688D01*
X154493181Y-114497481D01*
X154434536Y-114380777D01*
X154377877Y-114257282D01*
X154323497Y-114127702D01*
X154271690Y-113992744D01*
X154222750Y-113853113D01*
X154176970Y-113709515D01*
X154134646Y-113562658D01*
X154096070Y-113413247D01*
X154061537Y-113261988D01*
X154031340Y-113109588D01*
X154005774Y-112956753D01*
X153985131Y-112804189D01*
X153969707Y-112652601D01*
X153959781Y-112502455D01*
X153955669Y-112354429D01*
X153955894Y-112281438D01*
X153957694Y-112209248D01*
X153961109Y-112137950D01*
X153966178Y-112067635D01*
X153972943Y-111998393D01*
X153981444Y-111930315D01*
X153991721Y-111863491D01*
X154003815Y-111798012D01*
X154017765Y-111733968D01*
X154033612Y-111671451D01*
X154051396Y-111610549D01*
X154071158Y-111551355D01*
X154093011Y-111493784D01*
X154116959Y-111438069D01*
X154143041Y-111384309D01*
X154171298Y-111332605D01*
X154201770Y-111283056D01*
X154234498Y-111235765D01*
X154269523Y-111190829D01*
X154306883Y-111148351D01*
X154346621Y-111108429D01*
X154388776Y-111071165D01*
X154433388Y-111036658D01*
X154480499Y-111005009D01*
X154530147Y-110976318D01*
X154582375Y-110950686D01*
X154637221Y-110928212D01*
X154694727Y-110908997D01*
X154752616Y-110893058D01*
X154810516Y-110879712D01*
X154926227Y-110860494D01*
X155041615Y-110850733D01*
X155156439Y-110849820D01*
X155270453Y-110857146D01*
G37*
D13*
X138357592Y-90683920D02*
X138397600Y-90689101D01*
X138436490Y-90696843D01*
X138474264Y-90707064D01*
X138510925Y-90719681D01*
X138546476Y-90734613D01*
X138580920Y-90751776D01*
X138614260Y-90771089D01*
X138646498Y-90792468D01*
X138677637Y-90815832D01*
X138707680Y-90841097D01*
X138736631Y-90868181D01*
X138764492Y-90897003D01*
X138791265Y-90927478D01*
X138816623Y-90959079D01*
X138840983Y-90992166D01*
X138864358Y-91026671D01*
X138886761Y-91062522D01*
X138908207Y-91099650D01*
X138928709Y-91137983D01*
X138948280Y-91177453D01*
X138966934Y-91217987D01*
X138984684Y-91259517D01*
X139001544Y-91301971D01*
X139017528Y-91345280D01*
X139032648Y-91389374D01*
X139046918Y-91434181D01*
X139060353Y-91479631D01*
X139072965Y-91525655D01*
X139084767Y-91572182D01*
X139106056Y-91666723D01*
X139124372Y-91763125D01*
X139139773Y-91860898D01*
X139152319Y-91959549D01*
X139162069Y-92058588D01*
X139169081Y-92157524D01*
X139173416Y-92255864D01*
X139175133Y-92353118D01*
X139174289Y-92448795D01*
X139170946Y-92542402D01*
X139165161Y-92633450D01*
X139156994Y-92721446D01*
X139146504Y-92805900D01*
X139133750Y-92886319D01*
X139118792Y-92962213D01*
X139101688Y-93033091D01*
X139093644Y-93060664D01*
X139084440Y-93087419D01*
X139074121Y-93113369D01*
X139062733Y-93138526D01*
X139050322Y-93162903D01*
X139036932Y-93186511D01*
X139022611Y-93209362D01*
X139007403Y-93231470D01*
X138991354Y-93252845D01*
X138974510Y-93273502D01*
X138956915Y-93293451D01*
X138938616Y-93312705D01*
X138900088Y-93349176D01*
X138859290Y-93383015D01*
X138816586Y-93414319D01*
X138772341Y-93443186D01*
X138726919Y-93469713D01*
X138680686Y-93494000D01*
X138634007Y-93516144D01*
X138587244Y-93536243D01*
X138540765Y-93554394D01*
X138494932Y-93570697D01*
X138470901Y-93578652D01*
X138447039Y-93586177D01*
X138423390Y-93593288D01*
X138400000Y-93600000D01*
X138401805Y-93600478D01*
X138403611Y-93600966D01*
X138441930Y-93611788D01*
X138481084Y-93623889D01*
X138520814Y-93637344D01*
X138560864Y-93652231D01*
X138600974Y-93668626D01*
X138640887Y-93686606D01*
X138680343Y-93706248D01*
X138719085Y-93727628D01*
X138756855Y-93750825D01*
X138793394Y-93775914D01*
X138828444Y-93802972D01*
X138861747Y-93832077D01*
X138893044Y-93863305D01*
X138922077Y-93896733D01*
X138948589Y-93932437D01*
X138960818Y-93951168D01*
X138972320Y-93970496D01*
X138999450Y-94022001D01*
X139023082Y-94074467D01*
X139043276Y-94127764D01*
X139060089Y-94181764D01*
X139073582Y-94236335D01*
X139083812Y-94291348D01*
X139090838Y-94346674D01*
X139094721Y-94402182D01*
X139095517Y-94457744D01*
X139093287Y-94513228D01*
X139088089Y-94568506D01*
X139079983Y-94623447D01*
X139069026Y-94677923D01*
X139055278Y-94731802D01*
X139038798Y-94784956D01*
X139019644Y-94837254D01*
X138997876Y-94888568D01*
X138973552Y-94938766D01*
X138946732Y-94987720D01*
X138917473Y-95035299D01*
X138885836Y-95081375D01*
X138851879Y-95125816D01*
X138815660Y-95168494D01*
X138777240Y-95209278D01*
X138736676Y-95248039D01*
X138694027Y-95284647D01*
X138649353Y-95318973D01*
X138602712Y-95350886D01*
X138554163Y-95380257D01*
X138503765Y-95406956D01*
X138451577Y-95430853D01*
X138397658Y-95451819D01*
X138366149Y-95461951D01*
X138334441Y-95470091D01*
X138302564Y-95476311D01*
X138270551Y-95480681D01*
X138238435Y-95483275D01*
X138206249Y-95484163D01*
X138174023Y-95483416D01*
X138141791Y-95481108D01*
X138109585Y-95477309D01*
X138077437Y-95472090D01*
X138045380Y-95465524D01*
X138013445Y-95457682D01*
X137981666Y-95448636D01*
X137950074Y-95438457D01*
X137918702Y-95427218D01*
X137887581Y-95414988D01*
X137856627Y-95401789D01*
X137825820Y-95387662D01*
X137795185Y-95372664D01*
X137764746Y-95356849D01*
X137734526Y-95340272D01*
X137704548Y-95322990D01*
X137674838Y-95305057D01*
X137645418Y-95286528D01*
X137587544Y-95247907D01*
X137531115Y-95207569D01*
X137476323Y-95165956D01*
X137423357Y-95123510D01*
X137372134Y-95080436D01*
X137322889Y-95037183D01*
X137275806Y-94994163D01*
X137231070Y-94951788D01*
X137188868Y-94910468D01*
X137149382Y-94870616D01*
X137112800Y-94832643D01*
X137079305Y-94796962D01*
X137067664Y-94784351D01*
X137056478Y-94772131D01*
X137045760Y-94760317D01*
X137035517Y-94748927D01*
X137027627Y-94788473D01*
X137023229Y-94809695D01*
X137018517Y-94831820D01*
X137006915Y-94884006D01*
X136993691Y-94940021D01*
X136978791Y-94999364D01*
X136962163Y-95061538D01*
X136943752Y-95126044D01*
X136923504Y-95192383D01*
X136901366Y-95260055D01*
X136877283Y-95328563D01*
X136851230Y-95397338D01*
X136823013Y-95466229D01*
X136792565Y-95534704D01*
X136759820Y-95602231D01*
X136724709Y-95668278D01*
X136706247Y-95700581D01*
X136687168Y-95732314D01*
X136667465Y-95763412D01*
X136647128Y-95793807D01*
X136626151Y-95823434D01*
X136604524Y-95852226D01*
X136582191Y-95880169D01*
X136559078Y-95907266D01*
X136535175Y-95933431D01*
X136510473Y-95958577D01*
X136484965Y-95982616D01*
X136458640Y-96005462D01*
X136431491Y-96027028D01*
X136403508Y-96047227D01*
X136374684Y-96065972D01*
X136345009Y-96083177D01*
X136314474Y-96098753D01*
X136283072Y-96112616D01*
X136250793Y-96124676D01*
X136217628Y-96134849D01*
X136200711Y-96139200D01*
X136183569Y-96143046D01*
X136166202Y-96146377D01*
X136148607Y-96149181D01*
X136092105Y-96155998D01*
X136035255Y-96160330D01*
X135978211Y-96162194D01*
X135921126Y-96161607D01*
X135864156Y-96158583D01*
X135807454Y-96153140D01*
X135751173Y-96145294D01*
X135695469Y-96135060D01*
X135640494Y-96122455D01*
X135586403Y-96107496D01*
X135533350Y-96090197D01*
X135481489Y-96070575D01*
X135430974Y-96048647D01*
X135381958Y-96024429D01*
X135334596Y-95997936D01*
X135289042Y-95969185D01*
X135244978Y-95937820D01*
X135203074Y-95904157D01*
X135163500Y-95868225D01*
X135144641Y-95849417D01*
X135126429Y-95830053D01*
X135108885Y-95810136D01*
X135092030Y-95789671D01*
X135075886Y-95768661D01*
X135060474Y-95747110D01*
X135045816Y-95725021D01*
X135031933Y-95702398D01*
X135018846Y-95679245D01*
X135006576Y-95655566D01*
X134995146Y-95631364D01*
X134984576Y-95606643D01*
X134974887Y-95581407D01*
X134966101Y-95555660D01*
X134958240Y-95529404D01*
X134951325Y-95502645D01*
X134945376Y-95475386D01*
X134940416Y-95447629D01*
X134936466Y-95419380D01*
X134933546Y-95390642D01*
X134931680Y-95361419D01*
X134930887Y-95331714D01*
X134931189Y-95301530D01*
X134932607Y-95270873D01*
X134935164Y-95239745D01*
X134938879Y-95208150D01*
X134945303Y-95164720D01*
X134952620Y-95122603D01*
X134960784Y-95081784D01*
X134969745Y-95042249D01*
X134979458Y-95003982D01*
X134989873Y-94966966D01*
X135000943Y-94931188D01*
X135012620Y-94896632D01*
X135024857Y-94863282D01*
X135037606Y-94831122D01*
X135050819Y-94800138D01*
X135064448Y-94770315D01*
X135092763Y-94714087D01*
X135122169Y-94662315D01*
X135103457Y-94667589D01*
X135084394Y-94672510D01*
X135064987Y-94677052D01*
X135045244Y-94681188D01*
X135025171Y-94684894D01*
X135004776Y-94688142D01*
X134984066Y-94690908D01*
X134963049Y-94693166D01*
X134929021Y-94695644D01*
X134894366Y-94696671D01*
X134859117Y-94696156D01*
X134823306Y-94694009D01*
X134786964Y-94690142D01*
X134750123Y-94684464D01*
X134712815Y-94676886D01*
X134675073Y-94667319D01*
X134636927Y-94655673D01*
X134598410Y-94641859D01*
X134559554Y-94625786D01*
X134520390Y-94607366D01*
X134480950Y-94586509D01*
X134441267Y-94563126D01*
X134401372Y-94537126D01*
X134361297Y-94508420D01*
X134305209Y-94463909D01*
X134248217Y-94413846D01*
X134190624Y-94358605D01*
X134132733Y-94298556D01*
X134074849Y-94234072D01*
X134017275Y-94165525D01*
X133960315Y-94093286D01*
X133904274Y-94017728D01*
X133849454Y-93939221D01*
X133796160Y-93858139D01*
X133744695Y-93774854D01*
X133695364Y-93689736D01*
X133648470Y-93603157D01*
X133604317Y-93515491D01*
X133563208Y-93427108D01*
X133525449Y-93338380D01*
X133491165Y-93249210D01*
X133460685Y-93159900D01*
X133446989Y-93115314D01*
X133434384Y-93070840D01*
X133422917Y-93026525D01*
X133412633Y-92982419D01*
X133403580Y-92938572D01*
X133395805Y-92895030D01*
X133389353Y-92851844D01*
X133384271Y-92809062D01*
X133380607Y-92766732D01*
X133378406Y-92724905D01*
X133377715Y-92683627D01*
X133378581Y-92642949D01*
X133381088Y-92602526D01*
X133385295Y-92562713D01*
X133391256Y-92523576D01*
X133399023Y-92485184D01*
X133408649Y-92447606D01*
X133420186Y-92410909D01*
X133433687Y-92375162D01*
X133449204Y-92340433D01*
X133466790Y-92306790D01*
X133486497Y-92274300D01*
X133508379Y-92243034D01*
X133532488Y-92213057D01*
X133558876Y-92184439D01*
X133587596Y-92157248D01*
X133618700Y-92131552D01*
X133652241Y-92107419D01*
X133685507Y-92086109D01*
X133719257Y-92066440D01*
X133788067Y-92031849D01*
X133858393Y-92003296D01*
X133929956Y-91980434D01*
X134002477Y-91962913D01*
X134075678Y-91950385D01*
X134149281Y-91942500D01*
X134223006Y-91938909D01*
X134296576Y-91939264D01*
X134369712Y-91943216D01*
X134442134Y-91950416D01*
X134513566Y-91960515D01*
X134583727Y-91973165D01*
X134652340Y-91988015D01*
X134719127Y-92004718D01*
X134783807Y-92022925D01*
X134846983Y-92042574D01*
X134907905Y-92063214D01*
X134966319Y-92084532D01*
X135021972Y-92106215D01*
X135074611Y-92127950D01*
X135123983Y-92149425D01*
X135169836Y-92170325D01*
X135211916Y-92190340D01*
X135250064Y-92209192D01*
X135283995Y-92226568D01*
X135313462Y-92242158D01*
X135338215Y-92255652D01*
X135348746Y-92261519D01*
X135358014Y-92266751D01*
X135372624Y-92275152D01*
X135377896Y-92278243D01*
X135381779Y-92280549D01*
X135382462Y-92280964D01*
X135382778Y-92281154D01*
X135383075Y-92281330D01*
X135385470Y-92282560D01*
X135398156Y-92289122D01*
X135418235Y-92299611D01*
X135444921Y-92313662D01*
X135514975Y-92351071D01*
X135556779Y-92373751D01*
X135602044Y-92398620D01*
X135699703Y-92453471D01*
X135802243Y-92513224D01*
X135853325Y-92544061D01*
X135903207Y-92575070D01*
X135951081Y-92605901D01*
X135996141Y-92636202D01*
X136044980Y-92670822D01*
X136095384Y-92708239D01*
X136146689Y-92747744D01*
X136198228Y-92788627D01*
X136249335Y-92830179D01*
X136299343Y-92871691D01*
X136393400Y-92951758D01*
X136429142Y-92982794D01*
X136462504Y-93012061D01*
X136520624Y-93063703D01*
X136703584Y-92421506D01*
X136704960Y-92416638D01*
X136707077Y-92412034D01*
X136996319Y-91782020D01*
X136998145Y-91778029D01*
X137000499Y-91774310D01*
X137056432Y-91809608D01*
X137000513Y-91774278D01*
X137000515Y-91774276D01*
X137000518Y-91774274D01*
X137000520Y-91774271D01*
X137000523Y-91774268D01*
X137000525Y-91774265D01*
X137000528Y-91774262D01*
X137000530Y-91774259D01*
X137000533Y-91774256D01*
X137000535Y-91774253D01*
X137000538Y-91774249D01*
X137000540Y-91774245D01*
X137000543Y-91774242D01*
X137000545Y-91774238D01*
X137000547Y-91774234D01*
X137000552Y-91774225D01*
X137000562Y-91774208D01*
X137000572Y-91774189D01*
X137000595Y-91774146D01*
X137000608Y-91774123D01*
X137000623Y-91774098D01*
X137000631Y-91774085D01*
X137000639Y-91774072D01*
X137000648Y-91774058D01*
X137000658Y-91774044D01*
X137000827Y-91773777D01*
X137001055Y-91773419D01*
X137001680Y-91772433D01*
X137002523Y-91771096D01*
X137008173Y-91762350D01*
X137017279Y-91748409D01*
X137023087Y-91739603D01*
X137029709Y-91729637D01*
X137045351Y-91706396D01*
X137064070Y-91679033D01*
X137085734Y-91647908D01*
X137110209Y-91613379D01*
X137137352Y-91575822D01*
X137167071Y-91535545D01*
X137199232Y-91492908D01*
X137233705Y-91448273D01*
X137270356Y-91402004D01*
X137309053Y-91354461D01*
X137349664Y-91306007D01*
X137392056Y-91257005D01*
X137436068Y-91207840D01*
X137481714Y-91158724D01*
X137528861Y-91110034D01*
X137577375Y-91062147D01*
X137627125Y-91015441D01*
X137677975Y-90970292D01*
X137703772Y-90948420D01*
X137729795Y-90927079D01*
X137756026Y-90906317D01*
X137782449Y-90886179D01*
X137808928Y-90866800D01*
X137835702Y-90848038D01*
X137862751Y-90829954D01*
X137890057Y-90812612D01*
X137917601Y-90796070D01*
X137945363Y-90780392D01*
X137973325Y-90765639D01*
X138001468Y-90751870D01*
X138029772Y-90739149D01*
X138058218Y-90727537D01*
X138086788Y-90717094D01*
X138115463Y-90707882D01*
X138144223Y-90699963D01*
X138173049Y-90693397D01*
X138201923Y-90688247D01*
X138230825Y-90684573D01*
X138274207Y-90681574D01*
X138316461Y-90681384D01*
X138357592Y-90683920D01*
D14*
X128696115Y-87872419D02*
X128696115Y-86872419D01*
X128600877Y-87491466D02*
X128315163Y-87872419D01*
X128315163Y-87205752D02*
X128696115Y-87586704D01*
X127458020Y-87872419D02*
X127458020Y-87348609D01*
X127458020Y-87348609D02*
X127505639Y-87253371D01*
X127505639Y-87253371D02*
X127600877Y-87205752D01*
X127600877Y-87205752D02*
X127791353Y-87205752D01*
X127791353Y-87205752D02*
X127886591Y-87253371D01*
X127458020Y-87824800D02*
X127553258Y-87872419D01*
X127553258Y-87872419D02*
X127791353Y-87872419D01*
X127791353Y-87872419D02*
X127886591Y-87824800D01*
X127886591Y-87824800D02*
X127934210Y-87729561D01*
X127934210Y-87729561D02*
X127934210Y-87634323D01*
X127934210Y-87634323D02*
X127886591Y-87539085D01*
X127886591Y-87539085D02*
X127791353Y-87491466D01*
X127791353Y-87491466D02*
X127553258Y-87491466D01*
X127553258Y-87491466D02*
X127458020Y-87443847D01*
X127077067Y-87205752D02*
X126838972Y-87872419D01*
X126600877Y-87205752D02*
X126838972Y-87872419D01*
X126838972Y-87872419D02*
X126934210Y-88110514D01*
X126934210Y-88110514D02*
X126981829Y-88158133D01*
X126981829Y-88158133D02*
X127077067Y-88205752D01*
X126077067Y-87872419D02*
X126172305Y-87824800D01*
X126172305Y-87824800D02*
X126219924Y-87729561D01*
X126219924Y-87729561D02*
X126219924Y-86872419D01*
X125315162Y-87824800D02*
X125410400Y-87872419D01*
X125410400Y-87872419D02*
X125600876Y-87872419D01*
X125600876Y-87872419D02*
X125696114Y-87824800D01*
X125696114Y-87824800D02*
X125743733Y-87729561D01*
X125743733Y-87729561D02*
X125743733Y-87348609D01*
X125743733Y-87348609D02*
X125696114Y-87253371D01*
X125696114Y-87253371D02*
X125600876Y-87205752D01*
X125600876Y-87205752D02*
X125410400Y-87205752D01*
X125410400Y-87205752D02*
X125315162Y-87253371D01*
X125315162Y-87253371D02*
X125267543Y-87348609D01*
X125267543Y-87348609D02*
X125267543Y-87443847D01*
X125267543Y-87443847D02*
X125743733Y-87539085D01*
X124458019Y-87824800D02*
X124553257Y-87872419D01*
X124553257Y-87872419D02*
X124743733Y-87872419D01*
X124743733Y-87872419D02*
X124838971Y-87824800D01*
X124838971Y-87824800D02*
X124886590Y-87729561D01*
X124886590Y-87729561D02*
X124886590Y-87348609D01*
X124886590Y-87348609D02*
X124838971Y-87253371D01*
X124838971Y-87253371D02*
X124743733Y-87205752D01*
X124743733Y-87205752D02*
X124553257Y-87205752D01*
X124553257Y-87205752D02*
X124458019Y-87253371D01*
X124458019Y-87253371D02*
X124410400Y-87348609D01*
X124410400Y-87348609D02*
X124410400Y-87443847D01*
X124410400Y-87443847D02*
X124886590Y-87539085D01*
X123934209Y-86872419D02*
X124029447Y-87062895D01*
X123553257Y-87824800D02*
X123458019Y-87872419D01*
X123458019Y-87872419D02*
X123267543Y-87872419D01*
X123267543Y-87872419D02*
X123172305Y-87824800D01*
X123172305Y-87824800D02*
X123124686Y-87729561D01*
X123124686Y-87729561D02*
X123124686Y-87681942D01*
X123124686Y-87681942D02*
X123172305Y-87586704D01*
X123172305Y-87586704D02*
X123267543Y-87539085D01*
X123267543Y-87539085D02*
X123410400Y-87539085D01*
X123410400Y-87539085D02*
X123505638Y-87491466D01*
X123505638Y-87491466D02*
X123553257Y-87396228D01*
X123553257Y-87396228D02*
X123553257Y-87348609D01*
X123553257Y-87348609D02*
X123505638Y-87253371D01*
X123505638Y-87253371D02*
X123410400Y-87205752D01*
X123410400Y-87205752D02*
X123267543Y-87205752D01*
X123267543Y-87205752D02*
X123172305Y-87253371D01*
X179362782Y-89550038D02*
X179553258Y-89930990D01*
X178505639Y-90788133D02*
X176981830Y-90788133D01*
X177743734Y-91550038D02*
X177743734Y-90026228D01*
X176029449Y-91359561D02*
X175934211Y-91454800D01*
X175934211Y-91454800D02*
X176029449Y-91550038D01*
X176029449Y-91550038D02*
X176124687Y-91454800D01*
X176124687Y-91454800D02*
X176029449Y-91359561D01*
X176029449Y-91359561D02*
X176029449Y-91550038D01*
X174791354Y-89550038D02*
X174791354Y-90026228D01*
X175267544Y-89835752D02*
X174791354Y-90026228D01*
X174791354Y-90026228D02*
X174315163Y-89835752D01*
X175077068Y-90407180D02*
X174791354Y-90026228D01*
X174791354Y-90026228D02*
X174505639Y-90407180D01*
X128543734Y-93205752D02*
X127829449Y-93205752D01*
X128258020Y-92777180D02*
X128543734Y-94062895D01*
X127924687Y-93634323D02*
X128638972Y-93634323D01*
X128210401Y-94062895D02*
X127924687Y-92777180D01*
X127543734Y-93824800D02*
X127448496Y-93872419D01*
X127448496Y-93872419D02*
X127258020Y-93872419D01*
X127258020Y-93872419D02*
X127162782Y-93824800D01*
X127162782Y-93824800D02*
X127115163Y-93729561D01*
X127115163Y-93729561D02*
X127115163Y-93681942D01*
X127115163Y-93681942D02*
X127162782Y-93586704D01*
X127162782Y-93586704D02*
X127258020Y-93539085D01*
X127258020Y-93539085D02*
X127400877Y-93539085D01*
X127400877Y-93539085D02*
X127496115Y-93491466D01*
X127496115Y-93491466D02*
X127543734Y-93396228D01*
X127543734Y-93396228D02*
X127543734Y-93348609D01*
X127543734Y-93348609D02*
X127496115Y-93253371D01*
X127496115Y-93253371D02*
X127400877Y-93205752D01*
X127400877Y-93205752D02*
X127258020Y-93205752D01*
X127258020Y-93205752D02*
X127162782Y-93253371D01*
X126543734Y-93872419D02*
X126638972Y-93824800D01*
X126638972Y-93824800D02*
X126686591Y-93777180D01*
X126686591Y-93777180D02*
X126734210Y-93681942D01*
X126734210Y-93681942D02*
X126734210Y-93396228D01*
X126734210Y-93396228D02*
X126686591Y-93300990D01*
X126686591Y-93300990D02*
X126638972Y-93253371D01*
X126638972Y-93253371D02*
X126543734Y-93205752D01*
X126543734Y-93205752D02*
X126400877Y-93205752D01*
X126400877Y-93205752D02*
X126305639Y-93253371D01*
X126305639Y-93253371D02*
X126258020Y-93300990D01*
X126258020Y-93300990D02*
X126210401Y-93396228D01*
X126210401Y-93396228D02*
X126210401Y-93681942D01*
X126210401Y-93681942D02*
X126258020Y-93777180D01*
X126258020Y-93777180D02*
X126305639Y-93824800D01*
X126305639Y-93824800D02*
X126400877Y-93872419D01*
X126400877Y-93872419D02*
X126543734Y-93872419D01*
X125638972Y-93872419D02*
X125734210Y-93824800D01*
X125734210Y-93824800D02*
X125781829Y-93729561D01*
X125781829Y-93729561D02*
X125781829Y-92872419D01*
X124829448Y-93872419D02*
X124829448Y-92872419D01*
X124829448Y-93824800D02*
X124924686Y-93872419D01*
X124924686Y-93872419D02*
X125115162Y-93872419D01*
X125115162Y-93872419D02*
X125210400Y-93824800D01*
X125210400Y-93824800D02*
X125258019Y-93777180D01*
X125258019Y-93777180D02*
X125305638Y-93681942D01*
X125305638Y-93681942D02*
X125305638Y-93396228D01*
X125305638Y-93396228D02*
X125258019Y-93300990D01*
X125258019Y-93300990D02*
X125210400Y-93253371D01*
X125210400Y-93253371D02*
X125115162Y-93205752D01*
X125115162Y-93205752D02*
X124924686Y-93205752D01*
X124924686Y-93205752D02*
X124829448Y-93253371D01*
X123972305Y-93824800D02*
X124067543Y-93872419D01*
X124067543Y-93872419D02*
X124258019Y-93872419D01*
X124258019Y-93872419D02*
X124353257Y-93824800D01*
X124353257Y-93824800D02*
X124400876Y-93729561D01*
X124400876Y-93729561D02*
X124400876Y-93348609D01*
X124400876Y-93348609D02*
X124353257Y-93253371D01*
X124353257Y-93253371D02*
X124258019Y-93205752D01*
X124258019Y-93205752D02*
X124067543Y-93205752D01*
X124067543Y-93205752D02*
X123972305Y-93253371D01*
X123972305Y-93253371D02*
X123924686Y-93348609D01*
X123924686Y-93348609D02*
X123924686Y-93443847D01*
X123924686Y-93443847D02*
X124400876Y-93539085D01*
X123496114Y-93872419D02*
X123496114Y-93205752D01*
X123496114Y-93396228D02*
X123448495Y-93300990D01*
X123448495Y-93300990D02*
X123400876Y-93253371D01*
X123400876Y-93253371D02*
X123305638Y-93205752D01*
X123305638Y-93205752D02*
X123210400Y-93205752D01*
X139400877Y-117956800D02*
X139467544Y-117890133D01*
X139467544Y-117890133D02*
X139600877Y-117690133D01*
X139600877Y-117690133D02*
X139667544Y-117556800D01*
X139667544Y-117556800D02*
X139734211Y-117356800D01*
X139734211Y-117356800D02*
X139800877Y-117023466D01*
X139800877Y-117023466D02*
X139800877Y-116756800D01*
X139800877Y-116756800D02*
X139734211Y-116423466D01*
X139734211Y-116423466D02*
X139667544Y-116223466D01*
X139667544Y-116223466D02*
X139600877Y-116090133D01*
X139600877Y-116090133D02*
X139467544Y-115890133D01*
X139467544Y-115890133D02*
X139400877Y-115823466D01*
X138667544Y-116023466D02*
X138667544Y-116356800D01*
X139000878Y-116223466D02*
X138667544Y-116356800D01*
X138667544Y-116356800D02*
X138334211Y-116223466D01*
X138867544Y-116623466D02*
X138667544Y-116356800D01*
X138667544Y-116356800D02*
X138467544Y-116623466D01*
X138000877Y-116156800D02*
X137734211Y-115956800D01*
X137734211Y-115956800D02*
X137467544Y-116156800D01*
X137200877Y-116156800D02*
X136934211Y-115956800D01*
X136934211Y-115956800D02*
X136667544Y-116156800D01*
X136000877Y-116023466D02*
X136000877Y-116356800D01*
X136334211Y-116223466D02*
X136000877Y-116356800D01*
X136000877Y-116356800D02*
X135667544Y-116223466D01*
X136200877Y-116623466D02*
X136000877Y-116356800D01*
X136000877Y-116356800D02*
X135800877Y-116623466D01*
X135267544Y-117956800D02*
X135200877Y-117890133D01*
X135200877Y-117890133D02*
X135067544Y-117690133D01*
X135067544Y-117690133D02*
X135000877Y-117556800D01*
X135000877Y-117556800D02*
X134934210Y-117356800D01*
X134934210Y-117356800D02*
X134867544Y-117023466D01*
X134867544Y-117023466D02*
X134867544Y-116756800D01*
X134867544Y-116756800D02*
X134934210Y-116423466D01*
X134934210Y-116423466D02*
X135000877Y-116223466D01*
X135000877Y-116223466D02*
X135067544Y-116090133D01*
X135067544Y-116090133D02*
X135200877Y-115890133D01*
X135200877Y-115890133D02*
X135267544Y-115823466D01*
M02*
