M48
; DRILL file {KiCad 9.0.2} date 2025-06-28T05:17:29-0700
; FORMAT={-:-/ absolute / metric / decimal}
; #@! TF.CreationDate,2025-06-28T05:17:29-07:00
; #@! TF.GenerationSoftware,Kicad,Pcbnew,9.0.2
; #@! TF.FileFunction,Plated,1,2,PTH
FMAT,2
METRIC
; #@! TA.AperFunction,Plated,PTH,ViaDrill
T1C0.300
; #@! TA.AperFunction,Plated,PTH,ComponentDrill
T2C0.750
; #@! TA.AperFunction,Plated,PTH,ComponentDrill
T3C0.800
; #@! TA.AperFunction,Plated,PTH,ComponentDrill
T4C0.900
; #@! TA.AperFunction,Plated,PTH,ComponentDrill
T5C1.100
%
G90
G05
T1
X121.6Y-102.0
X150.8Y-103.0
X156.2Y-104.6
T2
X133.33Y-109.27
X134.6Y-108.0
X135.87Y-109.27
X159.46Y-108.8
X160.73Y-107.53
X162.0Y-108.8
T3
X131.59Y-102.2
X139.21Y-102.2
X148.2Y-101.59
X148.2Y-109.21
X155.38Y-101.8
X163.0Y-101.8
X175.6Y-78.8
X175.6Y-83.88
X178.14Y-81.34
T4
X128.925Y-117.4
X131.465Y-117.4
X164.26Y-117.4
X166.8Y-117.4
T5
X161.5Y-89.9
X161.5Y-94.4
X168.0Y-89.9
X168.0Y-94.4
M30
