%TF.GenerationSoftware,KiCad,Pcbnew,9.0.2*%
%TF.CreationDate,2025-06-04T18:39:41-07:00*%
%TF.ProjectId,butterfly3,62757474-6572-4666-9c79-332e6b696361,rev?*%
%TF.SameCoordinates,Original*%
%TF.FileFunction,Copper,L2,Bot*%
%TF.FilePolarity,Positive*%
%FSLAX46Y46*%
G04 Gerber Fmt 4.6, Leading zero omitted, Abs format (unit mm)*
G04 Created by KiCad (PCBNEW 9.0.2) date 2025-06-04 18:39:41*
%MOMM*%
%LPD*%
G01*
G04 APERTURE LIST*
%TA.AperFunction,ComponentPad*%
%ADD10C,1.600000*%
%TD*%
%TA.AperFunction,ComponentPad*%
%ADD11R,1.800000X1.800000*%
%TD*%
%TA.AperFunction,ComponentPad*%
%ADD12C,1.800000*%
%TD*%
%TA.AperFunction,ComponentPad*%
%ADD13C,2.000000*%
%TD*%
%TA.AperFunction,SMDPad,CuDef*%
%ADD14R,1.270000X5.080000*%
%TD*%
%TA.AperFunction,SMDPad,CuDef*%
%ADD15C,17.800000*%
%TD*%
%TA.AperFunction,Conductor*%
%ADD16C,0.200000*%
%TD*%
G04 APERTURE END LIST*
D10*
%TO.P,R2,2*%
%TO.N,Net-(BT1--)*%
X129000000Y-114000000D03*
%TO.P,R2,1*%
%TO.N,Net-(D2-K)*%
X121380000Y-114000000D03*
%TD*%
%TO.P,R1,1*%
%TO.N,Net-(D1-K)*%
X129000000Y-105500000D03*
%TO.P,R1,2*%
%TO.N,Net-(BT1--)*%
X121380000Y-105500000D03*
%TD*%
D11*
%TO.P,D2,1,K*%
%TO.N,Net-(D2-K)*%
X160960000Y-112000000D03*
D12*
%TO.P,D2,2,A*%
%TO.N,Net-(D1-A)*%
X163500000Y-112000000D03*
%TD*%
D11*
%TO.P,D1,1,K*%
%TO.N,Net-(D1-K)*%
X151460000Y-99500000D03*
D12*
%TO.P,D1,2,A*%
%TO.N,Net-(D1-A)*%
X154000000Y-99500000D03*
%TD*%
D13*
%TO.P,SW1,1,1*%
%TO.N,Net-(BT1-+)*%
X164000000Y-76500000D03*
X170500000Y-76500000D03*
%TO.P,SW1,2,2*%
%TO.N,Net-(D1-A)*%
X164000000Y-81000000D03*
X170500000Y-81000000D03*
%TD*%
D14*
%TO.P,BT1,1,+*%
%TO.N,Net-(BT1-+)*%
X129485000Y-77500000D03*
X107515000Y-77500000D03*
D15*
%TO.P,BT1,2,-*%
%TO.N,Net-(BT1--)*%
X118500000Y-77500000D03*
%TD*%
D16*
%TO.N,Net-(BT1--)*%
X129000000Y-113120000D02*
X129000000Y-114000000D01*
X121380000Y-105500000D02*
X129000000Y-113120000D01*
X121380000Y-99380000D02*
X121380000Y-105500000D01*
X106579000Y-84579000D02*
X121380000Y-99380000D01*
X106579000Y-74659000D02*
X106579000Y-84579000D01*
X115659000Y-74659000D02*
X106579000Y-74659000D01*
X118500000Y-77500000D02*
X115659000Y-74659000D01*
%TO.N,Net-(BT1-+)*%
X107515000Y-79527179D02*
X107515000Y-77500000D01*
X114688821Y-86701000D02*
X107515000Y-79527179D01*
X123024000Y-86701000D02*
X114688821Y-86701000D01*
X129485000Y-80240000D02*
X123024000Y-86701000D01*
X129485000Y-77500000D02*
X129485000Y-80240000D01*
X167000000Y-80000000D02*
X170500000Y-76500000D01*
X142000000Y-84500000D02*
X166500000Y-84500000D01*
X135000000Y-77500000D02*
X142000000Y-84500000D01*
X166500000Y-84500000D02*
X167000000Y-84000000D01*
X167000000Y-84000000D02*
X167000000Y-80000000D01*
X129485000Y-77500000D02*
X135000000Y-77500000D01*
%TD*%
M02*
