%TF.GenerationSoftware,KiCad,Pcbnew,9.0.2*%
%TF.CreationDate,2025-06-04T18:39:41-07:00*%
%TF.ProjectId,butterfly3,62757474-6572-4666-9c79-332e6b696361,rev?*%
%TF.SameCoordinates,Original*%
%TF.FileFunction,Legend,Bot*%
%TF.FilePolarity,Positive*%
%FSLAX46Y46*%
G04 Gerber Fmt 4.6, Leading zero omitted, Abs format (unit mm)*
G04 Created by KiCad (PCBNEW 9.0.2) date 2025-06-04 18:39:41*
%MOMM*%
%LPD*%
G01*
G04 APERTURE LIST*
%ADD10C,0.150000*%
%ADD11C,0.120000*%
G04 APERTURE END LIST*
D10*
X119285714Y-65931009D02*
X119142857Y-65978628D01*
X119142857Y-65978628D02*
X119095238Y-66026247D01*
X119095238Y-66026247D02*
X119047619Y-66121485D01*
X119047619Y-66121485D02*
X119047619Y-66264342D01*
X119047619Y-66264342D02*
X119095238Y-66359580D01*
X119095238Y-66359580D02*
X119142857Y-66407200D01*
X119142857Y-66407200D02*
X119238095Y-66454819D01*
X119238095Y-66454819D02*
X119619047Y-66454819D01*
X119619047Y-66454819D02*
X119619047Y-65454819D01*
X119619047Y-65454819D02*
X119285714Y-65454819D01*
X119285714Y-65454819D02*
X119190476Y-65502438D01*
X119190476Y-65502438D02*
X119142857Y-65550057D01*
X119142857Y-65550057D02*
X119095238Y-65645295D01*
X119095238Y-65645295D02*
X119095238Y-65740533D01*
X119095238Y-65740533D02*
X119142857Y-65835771D01*
X119142857Y-65835771D02*
X119190476Y-65883390D01*
X119190476Y-65883390D02*
X119285714Y-65931009D01*
X119285714Y-65931009D02*
X119619047Y-65931009D01*
X118761904Y-65454819D02*
X118190476Y-65454819D01*
X118476190Y-66454819D02*
X118476190Y-65454819D01*
X117333333Y-66454819D02*
X117904761Y-66454819D01*
X117619047Y-66454819D02*
X117619047Y-65454819D01*
X117619047Y-65454819D02*
X117714285Y-65597676D01*
X117714285Y-65597676D02*
X117809523Y-65692914D01*
X117809523Y-65692914D02*
X117904761Y-65740533D01*
D11*
%TO.C,BT1*%
X129280000Y-72040000D02*
X129280000Y-74500000D01*
X129280000Y-80500000D02*
X129280000Y-81130000D01*
X129280000Y-81130000D02*
X127840000Y-85080000D01*
X127200000Y-69960000D02*
X129280000Y-72040000D01*
X123700000Y-69960000D02*
X127200000Y-69960000D01*
X109800000Y-69960000D02*
X113300000Y-69960000D01*
X109800000Y-69960000D02*
X107720000Y-72040000D01*
X107720000Y-72040000D02*
X107720000Y-74500000D01*
X107720000Y-80500000D02*
X107720000Y-81130000D01*
X107720000Y-81130000D02*
X109160000Y-85080000D01*
X127840000Y-85080000D02*
G75*
G02*
X124503354Y-86066530I-2030000J730001D01*
G01*
X112500000Y-86050000D02*
G75*
G02*
X109174757Y-85088169I-1310000J1700000D01*
G01*
%TD*%
M02*
