%TF.GenerationSoftware,KiCad,Pcbnew,9.0.2*%
%TF.CreationDate,2025-06-04T18:39:41-07:00*%
%TF.ProjectId,butterfly3,62757474-6572-4666-9c79-332e6b696361,rev?*%
%TF.SameCoordinates,Original*%
%TF.FileFunction,Copper,L1,Top*%
%TF.FilePolarity,Positive*%
%FSLAX46Y46*%
G04 Gerber Fmt 4.6, Leading zero omitted, Abs format (unit mm)*
G04 Created by KiCad (PCBNEW 9.0.2) date 2025-06-04 18:39:41*
%MOMM*%
%LPD*%
G01*
G04 APERTURE LIST*
%TA.AperFunction,ComponentPad*%
%ADD10C,1.600000*%
%TD*%
%TA.AperFunction,ComponentPad*%
%ADD11R,1.800000X1.800000*%
%TD*%
%TA.AperFunction,ComponentPad*%
%ADD12C,1.800000*%
%TD*%
%TA.AperFunction,ComponentPad*%
%ADD13C,2.000000*%
%TD*%
%TA.AperFunction,Conductor*%
%ADD14C,0.200000*%
%TD*%
G04 APERTURE END LIST*
D10*
%TO.P,R2,2*%
%TO.N,Net-(BT1--)*%
X129000000Y-114000000D03*
%TO.P,R2,1*%
%TO.N,Net-(D2-K)*%
X121380000Y-114000000D03*
%TD*%
%TO.P,R1,1*%
%TO.N,Net-(D1-K)*%
X129000000Y-105500000D03*
%TO.P,R1,2*%
%TO.N,Net-(BT1--)*%
X121380000Y-105500000D03*
%TD*%
D11*
%TO.P,D2,1,K*%
%TO.N,Net-(D2-K)*%
X160960000Y-112000000D03*
D12*
%TO.P,D2,2,A*%
%TO.N,Net-(D1-A)*%
X163500000Y-112000000D03*
%TD*%
D11*
%TO.P,D1,1,K*%
%TO.N,Net-(D1-K)*%
X151460000Y-99500000D03*
D12*
%TO.P,D1,2,A*%
%TO.N,Net-(D1-A)*%
X154000000Y-99500000D03*
%TD*%
D13*
%TO.P,SW1,1,1*%
%TO.N,Net-(BT1-+)*%
X164000000Y-76500000D03*
X170500000Y-76500000D03*
%TO.P,SW1,2,2*%
%TO.N,Net-(D1-A)*%
X164000000Y-81000000D03*
X170500000Y-81000000D03*
%TD*%
D14*
%TO.N,Net-(D2-K)*%
X121380000Y-121880000D02*
X121380000Y-114000000D01*
X121500000Y-122000000D02*
X121380000Y-121880000D01*
X121500000Y-123000000D02*
X121500000Y-122000000D01*
X127500000Y-123000000D02*
X121500000Y-123000000D01*
X133500000Y-117000000D02*
X127500000Y-123000000D01*
X133500000Y-112000000D02*
X133500000Y-117000000D01*
X141500000Y-104000000D02*
X133500000Y-112000000D01*
X145500000Y-104000000D02*
X141500000Y-104000000D01*
X153500000Y-112000000D02*
X145500000Y-104000000D01*
X160960000Y-112000000D02*
X153500000Y-112000000D01*
%TO.N,Net-(D1-A)*%
X170500000Y-112000000D02*
X163500000Y-112000000D01*
X170500000Y-105000000D02*
X170500000Y-112000000D01*
X165000000Y-99500000D02*
X170500000Y-105000000D01*
X154000000Y-99500000D02*
X165000000Y-99500000D01*
X170500000Y-93500000D02*
X170500000Y-81000000D01*
X160000000Y-93500000D02*
X170500000Y-93500000D01*
X154000000Y-99500000D02*
X160000000Y-93500000D01*
X164000000Y-81000000D02*
X170500000Y-81000000D01*
%TO.N,Net-(BT1-+)*%
X170500000Y-76500000D02*
X164000000Y-76500000D01*
%TO.N,Net-(D1-K)*%
X151460000Y-99500000D02*
X135000000Y-99500000D01*
X135000000Y-99500000D02*
X129000000Y-105500000D01*
%TD*%
M02*
